<?xml version="1.0" encoding="UTF-8"?>
<svg xmlns="http://www.w3.org/2000/svg" id="a" width="65px" height="65px" viewBox="0 0 65 65"><circle cx="32.5" cy="31.5" r="21.5" fill="#e5efef"/><rect x="36" y="42" width="4" height="15" fill="#f53e28"/><rect x="40" y="52" width="4" height="5" fill="#a9ba5a"/><rect x="44" y="47" width="4" height="10" fill="#fc8c29"/><path d="m10,63h-3v-3c0-.5.25-.97.67-1.25l12.42-8.32c2.24-1.5,3.63-4.23,3.63-7.13s-1.47-5.79-3.84-7.26l-8.9-5.54c-3.24-2.02-5.26-5.78-5.26-9.81s1.85-7.54,4.96-9.62l11.32-7.87V1h3v3c0,.5-.25.97-.67,1.25l-11.99,8.32c-2.24,1.5-3.63,4.23-3.63,7.13s1.47,5.79,3.84,7.26l8.9,5.54c3.24,2.02,5.26,5.78,5.26,9.81s-1.85,7.54-4.96,9.62l-11.75,7.87v2.2Z" fill="#e66353"/><path d="m25,63h-3v-2.2l-11.75-7.87c-3.11-2.08-4.96-5.68-4.96-9.62s2.01-7.79,5.26-9.81l8.9-5.54c2.37-1.47,3.84-4.26,3.84-7.26s-1.39-5.63-3.63-7.13L7.67,5.25c-.42-.28-.67-.75-.67-1.25V1h3v2.2l11.32,7.87c3.11,2.08,4.96,5.68,4.96,9.62s-2.01,7.79-5.26,9.81l-8.9,5.54c-2.37,1.47-3.84,4.26-3.84,7.26s1.39,5.63,3.63,7.13l12.42,8.32c.42.28.67.75.67,1.25v3Z" fill="#f53e28"/><rect x="36" y="10" width="16" height="4" rx="2" ry="2" fill="#0faa00"/><path d="m40,41h-4c-.55,0-1,.45-1,1v15c0,.55.45,1,1,1h12c.55,0,1-.45,1-1v-10c0-.55-.45-1-1-1h-4c-.55,0-1,.45-1,1v4h-2v-9c0-.55-.45-1-1-1Zm-1,15h-2v-13h2v13Zm6-8h2v8h-2v-8Zm-2,5v3h-2v-3h2Z" fill="#4c241d"/><path d="m26,3.75V1c0-.55-.45-1-1-1h-3c-.55,0-1,.45-1,1v1.68l-4.95,3.44-5.05-3.45v-1.67c0-.55-.45-1-1-1h-3c-.55,0-1,.45-1,1v2.74c0,.99.49,1.92,1.31,2.48l4.26,2.9-1.67,1.12c-3.38,2.27-5.41,6.18-5.41,10.45s2.2,8.46,5.73,10.66l1.04.65-1.04.65c-3.53,2.2-5.73,6.28-5.73,10.66s2.02,8.18,5.4,10.45l1.61,1.1-4.22,2.93c-.81.56-1.29,1.48-1.29,2.46v2.75c0,.55.45,1,1,1h3c.55,0,1-.45,1-1v-1.68l4.95-3.44,5.05,3.45v1.67c0,.55.45,1,1,1h3c.55,0,1-.45,1-1v-2.74c0-.99-.49-1.92-1.31-2.48l-4.26-2.9,1.67-1.12c3.38-2.27,5.41-6.18,5.41-10.45s-2.2-8.46-5.73-10.66l-1.04-.65,1.04-.65c3.53-2.2,5.73-6.28,5.73-10.66s-2.02-8.18-5.4-10.45l-1.61-1.1,4.22-2.93c.81-.56,1.29-1.48,1.29-2.46Zm-14.71,25.9c-2.95-1.84-4.79-5.27-4.79-8.96s1.69-6.89,4.52-8.79l2.34-1.57.89.61-2.67,1.79c-2.51,1.68-4.08,4.73-4.08,7.96s1.65,6.46,4.31,8.11l2.29,1.43-.95.59-1.88-1.17Zm3.71-7.66h7.38c-.35,2.14-1.52,4.03-3.25,5.11l-3.13,1.95-3.13-1.95c-.85-.53-1.56-1.26-2.11-2.11h7.24c.55,0,1-.45,1-1s-.45-1-1-1h-8c-.05,0-.1.02-.14.03-.22-.74-.36-1.53-.36-2.33,0-.58.07-1.14.19-1.69h8.31c.55,0,1-.45,1-1s-.45-1-1-1h-7.6c.55-1.05,1.33-1.96,2.29-2.6l3.34-2.24,3.28,2.24c1.79,1.2,2.95,3.3,3.15,5.6h-7.46c-.55,0-1,.45-1,1s.45,1,1,1Zm-5.57,37.98c-.27.19-.43.49-.43.82v1.2h-1v-1.75c0-.33.16-.63.43-.82l4.85-3.37.9.62-4.75,3.3Zm11.29-25.63c2.95,1.84,4.79,5.27,4.79,8.96s-1.69,6.89-4.52,8.79l-2.34,1.57-.89-.61,2.67-1.79c2.51-1.68,4.08-4.73,4.08-7.96s-1.65-6.46-4.31-8.11l-2.29-1.43.95-.59,1.88,1.17Zm-2.71,10.66h-8.31c-.12-.55-.19-1.12-.19-1.69,0-.8.13-1.57.35-2.31h8.15c.55,0,1-.45,1-1s-.45-1-1-1h-7.24c.55-.85,1.26-1.58,2.11-2.11l3.13-1.95,3.13,1.95c1.73,1.08,2.91,2.97,3.25,5.11h-7.38c-.55,0-1,.45-1,1s.45,1,1,1h7.46c-.2,2.3-1.36,4.4-3.15,5.6l-3.34,2.24-3.28-2.24c-.96-.64-1.74-1.55-2.29-2.6h7.6c.55,0,1-.45,1-1s-.45-1-1-1Zm7.5-24.31c0,3.69-1.83,7.12-4.79,8.96l-8.9,5.54c-2.66,1.66-4.31,4.76-4.31,8.11s1.56,6.27,4.07,7.95l11.99,8.17c.27.19.44.5.44.83v1.74h-1v-1.2c0-.33-.16-.64-.44-.83l-11.54-7.88c-2.83-1.9-4.52-5.18-4.52-8.79s1.83-7.12,4.79-8.96l8.9-5.54c2.66-1.66,4.31-4.76,4.31-8.11s-1.56-6.27-4.07-7.95L8.44,4.57c-.27-.19-.44-.5-.44-.83v-1.74h1v1.2c0,.33.16.64.44.83l11.54,7.88c2.83,1.9,4.52,5.18,4.52,8.79Zm-1.5-16.94c0,.33-.16.63-.43.82l-4.85,3.36-.9-.62,4.75-3.3c.27-.19.43-.49.43-.82v-1.2h1v1.75Z" fill="#4c241d"/><path d="m47,7c.55,0,1-.45,1-1s-.45-1-1-1h-11c-.55,0-1,.45-1,1s.45,1,1,1h11Z" fill="#4c241d"/><path d="m36,19h6c.55,0,1-.45,1-1s-.45-1-1-1h-6c-.55,0-1,.45-1,1s.45,1,1,1Z" fill="#4c241d"/><path d="m44,18c0,.55.45,1,1,1h13c.55,0,1-.45,1-1s-.45-1-1-1h-13c-.55,0-1,.45-1,1Z" fill="#4c241d"/><path d="m38,15h12c1.65,0,3-1.35,3-3s-1.35-3-3-3h-12c-1.65,0-3,1.35-3,3s1.35,3,3,3Zm0-4h12c.55,0,1,.45,1,1s-.45,1-1,1h-12c-.55,0-1-.45-1-1s.45-1,1-1Z" fill="#4c241d"/><path d="m32,4c-.55,0-1,.45-1,1v17c0,.55.45,1,1,1h27c.55,0,1-.45,1-1s-.45-1-1-1h-26V5c0-.55-.45-1-1-1Z" fill="#4c241d"/><path d="m31,61c0,.55.45,1,1,1h27c.55,0,1-.45,1-1s-.45-1-1-1h-26v-24c0-.55-.45-1-1-1s-1,.45-1,1v25Z" fill="#4c241d"/></svg>
