<?xml version="1.0" encoding="UTF-8"?>
<svg xmlns="http://www.w3.org/2000/svg" id="a" width="65px" height="65px" viewBox="0 0 65 65"><circle cx="32.5" cy="30.5" r="21.5" fill="#e5efef"/><path d="m60.9,49.44c-7.79.23-10.86-3.72-16.9-5.44-2.83-.81-5.98-.47-8.73.22-.17,1.06-.27,2.16-.27,3.28,0,4.48,1.41,8.53,3.69,11.5h18.62c1.94-2.53,3.25-5.86,3.59-9.56Z" fill="#ffce56"/><path d="m18,44v-4h-8v4l-5.57,11.93c-.67,1.43.38,3.07,1.95,3.07h15.23c1.58,0,2.62-1.64,1.95-3.07l-5.57-11.93Z" fill="#02eae6"/><rect x="2" y="59" width="60" height="4" fill="#bf7e68"/><circle cx="40" cy="48" r="1" fill="#4c241d"/><circle cx="44" cy="51" r="1" fill="#4c241d"/><circle cx="41" cy="54" r="1" fill="#4c241d"/><circle cx="52" cy="54" r="1" fill="#4c241d"/><circle cx="56" cy="52" r="1" fill="#4c241d"/><path d="m26.46,29.04c.2.2.45.29.71.29s.51-.1.71-.29l1.13-1.13,1.13,1.13c.2.2.45.29.71.29s.51-.1.71-.29c.39-.39.39-1.02,0-1.41l-1.13-1.13,1.13-1.13c.39-.39.39-1.02,0-1.41s-1.02-.39-1.41,0l-1.13,1.13-1.13-1.13c-.39-.39-1.02-.39-1.41,0s-.39,1.02,0,1.41l1.13,1.13-1.13,1.13c-.39.39-.39,1.02,0,1.41Z" fill="#4c241d"/><path d="m2,64h60c.55,0,1-.45,1-1v-4c0-.55-.45-1-1-1h-2.81c1.82-3.02,2.81-6.67,2.81-10.5,0-7.3-3.59-13.77-9-16.35v-7.15h1c1.65,0,3-1.35,3-3s-1.35-3-3-3h-5v-8h9c2.21,0,4-1.79,4-4v-2c0-2.21-1.79-4-4-4h-7c-2.21,0-4,1.79-4,4v4h-7c-1.1,0-2-.9-2-2v-2c0-2.21-1.79-4-4-4H9c-2.21,0-4,1.79-4,4v9c0,2.21,1.79,4,4,4h10v6c0,1.1-.9,2-2,2h-2v-2c0-2.21-1.79-4-4-4h-2c-2.21,0-4,1.79-4,4s1.79,4,4,4h4v3h-3.5c-1.38,0-2.5,1.12-2.5,2.5,0,1.21.86,2.22,2,2.45v8.83l-5.48,11.73c-.37.8-.38,1.69-.06,2.49h-1.47c-.55,0-1,.45-1,1v4c0,.55.45,1,1,1ZM49,4c0-1.1.9-2,2-2h7c1.1,0,2,.9,2,2v2c0,1.1-.9,2-2,2h-9v-4Zm-9.79,54c-2.07-2.88-3.21-6.58-3.21-10.5,0-.83.05-1.65.15-2.45,2.93-.65,5.48-.68,7.57-.08,2.09.6,3.86,1.5,5.58,2.37,2.91,1.48,5.92,2.99,10.48,3.1-.42,2.82-1.45,5.42-2.99,7.57h-17.58Zm4.79-36h-2c-.55,0-1-.45-1-1s.45-1,1-1h5v24.02c-.85-.36-1.75-.7-2.73-.98-2.22-.63-4.82-.67-7.74-.12,1.14-4.76,4-8.62,7.84-10.19.38-.15.62-.52.62-.92v-8.8c0-.55-.45-1-1-1Zm10-2c.55,0,1,.45,1,1s-.45,1-1,1h-2c-.55,0-1,.45-1,1v8.8c0,.41.25.77.62.92,5.01,2.06,8.38,7.99,8.38,14.77,0,.31-.02.62-.04.94-4.18-.05-6.9-1.43-9.75-2.88-.4-.2-.8-.41-1.21-.61v-24.94h5Zm-45,5c-1.1,0-2-.9-2-2s.9-2,2-2h2c1.1,0,2,.9,2,2v2h-4Zm6,2h2c2.21,0,4-1.79,4-4v-6h3c2.21,0,4-1.79,4-4v-6c0-2.21-1.79-4-4-4h-9c-2.21,0-4,1.79-4,4v2c0,2.21,1.79,4,4,4h2c1.1,0,2,.9,2,2h-10c-1.1,0-2-.9-2-2V4c0-1.1.9-2,2-2h25c1.1,0,2,.9,2,2v2c0,2.21,1.79,4,4,4h7v8h-5c-1.65,0-3,1.35-3,3s1.35,3,3,3h1v7.15c-4.54,2.16-7.79,7.07-8.72,12.91,0,0,0,0,0,0-.18,1.12-.28,2.26-.28,3.44,0,3.83,1,7.48,2.81,10.5h-12.28c.32-.8.31-1.69-.06-2.49l-5.48-11.73v-8.83c1.14-.23,2-1.24,2-2.45,0-1.38-1.12-2.5-2.5-2.5h-3.5v-3Zm2-16h-2c-1.1,0-2-.9-2-2v-2c0-1.1.9-2,2-2h9c1.1,0,2,.9,2,2v6c0,1.1-.9,2-2,2h-3c0-2.21-1.79-4-4-4Zm-2,21h3.5c.28,0,.5.22.5.5s-.22.5-.5.5h-.5c-.55,0-1,.45-1,1v5h-2v-7Zm-5.5,0h3.5v7h-2v-5c0-.55-.45-1-1-1h-.5c-.28,0-.5-.22-.5-.5s.22-.5.5-.5Zm-4.09,25.46c-.22-.34-.24-.74-.07-1.11l.17-.36h3.5c.55,0,1-.45,1-1s-.45-1-1-1h-2.56l.47-1.02s.06.02.09.02h5c.55,0,1-.45,1-1s-.45-1-1-1h-4.16l.47-1h2.7c.55,0,1-.45,1-1s-.45-1-1-1h-1.76l1.67-3.58c.06-.13.09-.28.09-.42v-3h6v3c0,.15.03.29.09.42l5.57,11.93c.17.37.14.77-.07,1.11-.22.34-.57.54-.97.54H6.38c-.4,0-.76-.2-.97-.54Zm-2.41,2.54h58v2H3v-2Z" fill="#4c241d"/></svg>
