<?xml version="1.0" encoding="UTF-8"?>
<svg xmlns="http://www.w3.org/2000/svg" id="a" width="65px" height="65px" viewBox="0 0 65 65"><circle cx="31.5" cy="33.5" r="21.5" fill="#e5efef"/><path d="m20.72,7h15.78v8h-20.5v-3.28c0-2.61,2.12-4.72,4.72-4.72Z" fill="#efefd2"/><path d="m20.72,7c2.66.11,4.28,2.25,4.28,5v39.3c0,3.7,2.3,6.7,6,6.7h24l4-2.99V12.66c0-3.13-2.53-5.66-5.66-5.66H20.72Z" fill="#fff"/><path d="m31,58h27.22c2.64,0,4.78-2.14,4.78-4.78v-2.22h-27v1.5c0,2.91-2.27,5.3-5.13,5.49h.13Z" fill="#efefd2"/><path d="m63,50h-3V12.66c0-3.67-2.99-6.66-6.66-6.66H20.72c-3.16,0-5.72,2.57-5.72,5.72v3.28c0,.55.45,1,1,1h8v35.3c0,4.46,2.94,7.7,7,7.7h27.22c3.19,0,5.78-2.59,5.78-5.78v-2.22c0-.55-.45-1-1-1ZM17,14v-2.28c0-2.02,1.62-3.66,3.7-3.71,2.01.09,3.3,1.65,3.3,3.99v2h-7Zm18,38.5c0,2.39-1.87,4.36-4.25,4.49,0,0,0,0,0,0-2.8-.13-4.74-2.44-4.74-5.69V12c0-1.59-.49-2.96-1.3-4h28.64c2.57,0,4.66,2.09,4.66,4.66v37.34h-22c-.55,0-1,.45-1,1v1.5Zm27,.72c0,2.08-1.69,3.78-3.78,3.78h-23.03c1.12-1.17,1.81-2.76,1.81-4.5v-.5h25v1.22Z" fill="#4c241d"/><path d="m.29,40.71c.2.2.45.29.71.29s.51-.1.71-.29l.79-.79.79.79c.2.2.45.29.71.29s.51-.1.71-.29c.39-.39.39-1.02,0-1.41l-.79-.79.79-.79c.39-.39.39-1.02,0-1.41s-1.02-.39-1.41,0l-.79.79-.79-.79c-.39-.39-1.02-.39-1.41,0s-.39,1.02,0,1.41l.79.79-.79.79c-.39.39-.39,1.02,0,1.41Z" fill="#4c241d"/><circle cx="17" cy="37" r="1" fill="#4c241d"/><circle cx="12" cy="28" r="1" fill="#4c241d"/></svg>
