<?xml version="1.0" encoding="UTF-8"?>
<svg xmlns="http://www.w3.org/2000/svg" id="a" width="65px" height="65px" viewBox="0 0 65 65"><circle cx="27.5" cy="33.5" r="21.5" fill="#e5efef"/><path d="m55,6h-30c-1.1,0-2,.9-2,2v48c0,1.1.9,2,2,2h36c1.1,0,2-.9,2-2V14l-8-8Z" fill="#fff"/><polygon points="55 14 63 14 55 6 55 14" fill="#efefd2"/><rect x="47" y="38" width="4" height="17" fill="#f53e28"/><rect x="51" y="48" width="4" height="7" fill="#a9ba5a"/><rect x="55" y="43" width="4" height="12" fill="#fc8c29"/><circle cx="30" cy="51" r="3" fill="#bf7e68"/><circle cx="36" cy="51" r="3" fill="#bd53b5"/><path d="m55.71,5.29c-.19-.19-.44-.29-.71-.29h-30c-1.65,0-3,1.35-3,3v48c0,1.65,1.35,3,3,3h36c1.65,0,3-1.35,3-3V14c0-.27-.11-.52-.29-.71l-8-8Zm6.29,25.17l-1.52-2.47,1.52-2.47v4.93Zm-6-22.05l4.59,4.59h-4.59v-4.59Zm-31-1.41h29v7c0,.55.45,1,1,1h7v6.72l-2.69,4.38-1.4-2.27c-1.45-2.36-4.07-3.82-6.83-3.82s-5.54,1.55-6.97,4.04l-1.11,1.94-1.11-1.94c-1.42-2.49-4.09-4.04-6.97-4.04s-5.38,1.46-6.83,3.82l-1.4,2.27-2.69-4.38v-13.72c0-.55.45-1,1-1Zm21,24.2c-.05-.08-.11-.15-.15-.23l-1.69-2.97,1.69-2.97c.05-.08.1-.15.15-.23v6.39Zm1.97-8.33c.33-.2.67-.35,1.03-.49v11.23c-.36-.13-.7-.29-1.03-.49,0-.04.03-.08.03-.13v-10s-.02-.09-.03-.13Zm3.03-.86s.05,0,.08,0c.31,0,.62.03.92.08v11.84c-.3.05-.61.08-.92.08-.03,0-.05,0-.08,0v-11.99Zm3,.76c.36.2.69.44,1,.71v9.05c-.31.27-.64.51-1,.71v-10.47Zm3,3.39l1.13,1.84-1.13,1.84v-3.68Zm-28,3.68l-1.13-1.84,1.13-1.84v3.68Zm2-6.37c.31-.27.64-.51,1-.71v10.47c-.36-.2-.69-.44-1-.71v-9.05Zm3-1.39c.3-.05.61-.08.92-.08.03,0,.05,0,.08,0v11.99s-.05,0-.08,0c-.31,0-.62-.03-.92-.08v-11.84Zm3,.3c.36.13.7.29,1.03.49,0,.04-.03.08-.03.13v10s.02.09.03.13c-.33.2-.67.35-1.03.49v-11.23Zm3,2.42c.05.08.11.15.15.23l1.69,2.97-1.69,2.97c-.05.08-.1.15-.15.23v-6.39Zm-16,.73l1.52,2.47-1.52,2.47v-4.93Zm37,31.47H25c-.55,0-1-.45-1-1v-21.72l2.69-4.38,1.4,2.27c1.45,2.36,4.07,3.82,6.83,3.82s5.54-1.55,6.97-4.04l1.11-1.94,1.11,1.94c1.42,2.49,4.09,4.04,6.97,4.04s5.38-1.46,6.83-3.82l1.4-2.27,2.69,4.38v21.72c0,.55-.45,1-1,1Z" fill="#4c241d"/><path d="m.29,40.71c.2.2.45.29.71.29s.51-.1.71-.29l.79-.79.79.79c.2.2.45.29.71.29s.51-.1.71-.29c.39-.39.39-1.02,0-1.41l-.79-.79.79-.79c.39-.39.39-1.02,0-1.41s-1.02-.39-1.41,0l-.79.79-.79-.79c-.39-.39-1.02-.39-1.41,0s-.39,1.02,0,1.41l.79.79-.79.79c-.39.39-.39,1.02,0,1.41Z" fill="#4c241d"/><circle cx="19" cy="34" r="1" fill="#4c241d"/><circle cx="10" cy="27" r="1" fill="#4c241d"/><path d="m59,43h-4c-.55,0-1,.45-1,1v3h-2v-8c0-.55-.45-1-1-1h-4c-.55,0-1,.45-1,1v16c0,.55.45,1,1,1h12c.55,0,1-.45,1-1v-11c0-.55-.45-1-1-1Zm-9,11h-2v-14h2v14Zm4-5v5h-2v-5h2Zm4,5h-2v-9h2v9Z" fill="#4c241d"/><path d="m36,47c-1.2,0-2.27.54-3,1.38-.73-.84-1.8-1.38-3-1.38-2.21,0-4,1.79-4,4s1.79,4,4,4c1.2,0,2.27-.54,3-1.38.73.84,1.8,1.38,3,1.38,2.21,0,4-1.79,4-4s-1.79-4-4-4Zm-6,6c-1.1,0-2-.9-2-2s.9-2,2-2,2,.9,2,2-.9,2-2,2Zm6,0c-1.1,0-2-.9-2-2s.9-2,2-2,2,.9,2,2-.9,2-2,2Z" fill="#4c241d"/><path d="m41,12h-13c-.55,0-1-.45-1-1s.45-1,1-1h13c.55,0,1,.45,1,1s-.45,1-1,1Z" fill="#b5a19c"/><path d="m48,12h-3c-.55,0-1-.45-1-1s.45-1,1-1h3c.55,0,1,.45,1,1s-.45,1-1,1Z" fill="#b5a19c"/><path d="m37,15h-9c-.55,0-1-.45-1-1s.45-1,1-1h9c.55,0,1,.45,1,1s-.45,1-1,1Z" fill="#b5a19c"/><path d="m48,15h-8c-.55,0-1-.45-1-1s.45-1,1-1h8c.55,0,1,.45,1,1s-.45,1-1,1Z" fill="#b5a19c"/></svg>
