<?xml version="1.0" encoding="UTF-8"?>
<svg xmlns="http://www.w3.org/2000/svg" id="a" width="65px" height="65px" viewBox="0 0 65 65"><circle cx="40.5" cy="23.5" r="20" fill="#eef4ce"/><rect x="11" y="11" width="38" height="52" rx="1.97" ry="1.97" fill="#fff"/><rect x="15" y="39" width="6" height="6" fill="#a9ba5a"/><rect x="15" y="49" width="6" height="6" fill="#a9ba5a"/><path d="m46,3c0-1.65-1.35-3-3-3s-3,1.35-3,3,1.35,3,3,3,3-1.35,3-3Zm-4,0c0-.55.45-1,1-1s1,.45,1,1-.45,1-1,1-1-.45-1-1Z" fill="#4c241d"/><path d="m56.13,15c-.63,0-1.13.51-1.13,1.13s.51,1.13,1.13,1.13,1.13-.51,1.13-1.13-.51-1.13-1.13-1.13Z" fill="#4c241d"/><path d="m56.71,5.46c-.39-.39-1.02-.39-1.41,0l-.71.71-.71-.71c-.39-.39-1.02-.39-1.41,0-.39.39-.39,1.02,0,1.41l.71.71-.71.71c-.39.39-.39,1.02,0,1.41.2.2.45.29.71.29s.51-.1.71-.29l.71-.71.71.71c.2.2.45.29.71.29s.51-.1.71-.29c.39-.39.39-1.02,0-1.41l-.71-.71.71-.71c.39-.39.39-1.02,0-1.41Z" fill="#4c241d"/><path d="m50,61.03V12.97c0-1.64-1.33-2.97-2.97-2.97h-19.03v-2.5c0-3.03-2.47-5.5-5.5-5.5s-5.5,2.47-5.5,5.5v2.5h-4.03c-1.64,0-2.97,1.33-2.97,2.97v48.06c0,1.64,1.33,2.97,2.97,2.97h34.06c1.64,0,2.97-1.33,2.97-2.97ZM19,7.5c0-1.93,1.57-3.5,3.5-3.5s3.5,1.57,3.5,3.5v2.5h-1v-2.5c0-1.38-1.12-2.5-2.5-2.5s-2.5,1.12-2.5,2.5v2.5h-1v-2.5Zm0,4.5h1v2c0,.55.45,1,1,1s1-.45,1-1v-2h1v4c0,1.1-.9,2-2,2s-2-.9-2-2v-4Zm3-2v-2.5c0-.28.22-.5.5-.5s.5.22.5.5v2.5h-1Zm26,51.03c0,.54-.44.97-.97.97H12.97c-.54,0-.97-.44-.97-.97V12.97c0-.54.44-.97.97-.97h4.03v4c0,2.21,1.79,4,4,4s4-1.79,4-4v-4h22.03c.54,0,.97.44.97.97v48.06Z" fill="#4c241d"/><path d="m15.5,23c.55,0,1-.45,1-1s-.45-1-1-1h-1.5c-.55,0-1,.45-1,1s.45,1,1,1h1.5Z" fill="#4c241d"/><path d="m31.61,23h3.22c.55,0,1-.45,1-1s-.45-1-1-1h-3.22c-.55,0-1,.45-1,1s.45,1,1,1Z" fill="#4c241d"/><path d="m28.39,23c.55,0,1-.45,1-1s-.45-1-1-1h-3.22c-.55,0-1,.45-1,1s.45,1,1,1h3.22Z" fill="#4c241d"/><path d="m38.06,23h3.22c.55,0,1-.45,1-1s-.45-1-1-1h-3.22c-.55,0-1,.45-1,1s.45,1,1,1Z" fill="#4c241d"/><path d="m18.72,23h3.22c.55,0,1-.45,1-1s-.45-1-1-1h-3.22c-.55,0-1,.45-1,1s.45,1,1,1Z" fill="#4c241d"/><path d="m46,21h-1.5c-.55,0-1,.45-1,1s.45,1,1,1h1.5c.55,0,1-.45,1-1s-.45-1-1-1Z" fill="#4c241d"/><path d="m16,31v-1h2c.55,0,1-.45,1-1s-.45-1-1-1h-3c-.55,0-1,.45-1,1v6c0,.55.45,1,1,1h6c.55,0,1-.45,1-1s-.45-1-1-1h-5v-3Z" fill="#4c241d"/><path d="m22.51,27.14c-.47-.29-1.09-.13-1.37.34l-2.34,3.9-1.09-1.09c-.2-.2-.45-.29-.71-.29s-.51.1-.71.29-.29.45-.29.71.1.51.29.71l2,2c.19.19.44.29.71.29.04,0,.08,0,.12,0,.31-.04.58-.21.74-.48l3-5c.28-.47.13-1.09-.34-1.37Z" fill="#4c241d"/><path d="m21,38h-6c-.55,0-1,.45-1,1v6c0,.55.45,1,1,1h6c.55,0,1-.45,1-1v-6c0-.55-.45-1-1-1Zm-1,6h-4v-4h4v4Z" fill="#4c241d"/><path d="m21,48h-6c-.55,0-1,.45-1,1v6c0,.55.45,1,1,1h6c.55,0,1-.45,1-1v-6c0-.55-.45-1-1-1Zm-1,6h-4v-4h4v4Z" fill="#4c241d"/><path d="m26,31h8c.55,0,1-.45,1-1s-.45-1-1-1h-8c-.55,0-1,.45-1,1s.45,1,1,1Z" fill="#4c241d"/><path d="m26,34h13c.55,0,1-.45,1-1s-.45-1-1-1h-13c-.55,0-1,.45-1,1s.45,1,1,1Z" fill="#4c241d"/><path d="m43,39h-17c-.55,0-1,.45-1,1s.45,1,1,1h17c.55,0,1-.45,1-1s-.45-1-1-1Z" fill="#4c241d"/><path d="m35,43c0-.55-.45-1-1-1h-8c-.55,0-1,.45-1,1s.45,1,1,1h8c.55,0,1-.45,1-1Z" fill="#4c241d"/><path d="m26,49c-.55,0-1,.45-1,1s.45,1,1,1h6c.55,0,1-.45,1-1s-.45-1-1-1h-6Z" fill="#4c241d"/><path d="m37,52h-11c-.55,0-1,.45-1,1s.45,1,1,1h11c.55,0,1-.45,1-1s-.45-1-1-1Z" fill="#4c241d"/><path d="m41,49h-6c-.55,0-1,.45-1,1s.45,1,1,1h6c.55,0,1-.45,1-1s-.45-1-1-1Z" fill="#4c241d"/></svg>
