<?xml version="1.0" encoding="UTF-8"?>
<svg xmlns="http://www.w3.org/2000/svg" id="a" width="65px" height="65px" viewBox="0 0 65 65"><circle cx="37" cy="28" r="23" fill="#efefd2"/><polygon points="28 47 19 47 21 37 26 37 28 47" fill="#fff"/><rect x="1" y="47" width="62" height="4" fill="#bf7e68"/><path d="m3,8h42.01c1.1,0,2,.89,2,2v24H1V10c0-1.1.89-2,2-2Z" fill="#9dc1e4"/><path d="m1,34h46v6c0,.55-.45,1-1,1H3c-1.1,0-2-.89-2-2v-5h0Z" fill="#fff"/><path d="m38,37h14.64c3.51,0,6.36,2.85,6.36,6.36v3.64h-17.07c-2.17,0-3.93-1.76-3.93-3.93v-6.07h0Z" fill="#ccc"/><path d="m56,45v8c0,1.66,1.34,3,3,3h0v-11" fill="#ccc"/><path d="m40.33,31h-6.67l-2.67-4v10c0,2.76,2.24,5,5,5h2c2.76,0,5-2.24,5-5v-10l-2.67,4Z" fill="#ccc"/><circle cx="54.5" cy="7.5" r="1.13" fill="#4c241d"/><path d="m53.46,19.04c.2.2.45.29.71.29s.51-.1.71-.29l1.13-1.13,1.13,1.13c.2.2.45.29.71.29s.51-.1.71-.29c.39-.39.39-1.02,0-1.41l-1.13-1.13,1.13-1.13c.39-.39.39-1.02,0-1.41s-1.02-.39-1.41,0l-1.13,1.13-1.13-1.13c-.39-.39-1.02-.39-1.41,0s-.39,1.02,0,1.41l1.13,1.13-1.13,1.13c-.39.39-.39,1.02,0,1.41Z" fill="#4c241d"/><path d="m63,46h-3v-2.64c0-4.06-3.3-7.36-7.36-7.36h-4.64V10c0-1.65-1.34-3-3-3H3c-1.65,0-3,1.34-3,3v29.01c0,1.65,1.34,3,3,3h15.98l-.8,4H1c-.55,0-1,.45-1,1v4c0,.55.45,1,1,1h54v1c0,2.21,1.79,4,4,4,.55,0,1-.45,1-1v-4h3c.55,0,1-.45,1-1v-4c0-.55-.45-1-1-1Zm-19-10v-1h2v1h-2ZM3,9h42.01c.55,0,1,.45,1,1v23h-2v-6c0-.44-.29-.83-.71-.96-.42-.13-.88.04-1.12.4l-2.37,3.55h-5.6l-2.37-3.55c-.24-.37-.7-.53-1.12-.4-.42.13-.71.52-.71.96v6H2V10c0-.55.45-1,1-1Zm25.82,37l-.8-4h4.43c.07,0,.12-.03.19-.04.96.65,2.12,1.04,3.37,1.04h1v.07c0,1.1.38,2.11.99,2.93h-9.17Zm9.18-5h-2c-2.21,0-4-1.79-4-4v-6.7l.83,1.25c.19.28.5.45.83.45h6.67c.33,0,.65-.17.83-.45l.83-1.25v6.7c0,2.21-1.79,4-4,4Zm-36-2v-4h28v2c0,1.09.3,2.12.81,3H3c-.55,0-1-.45-1-1Zm19.02,3h4.96l.8,4h-6.56l.8-4ZM2,50v-2h53v2H2Zm56,4.73c-.6-.35-1-.99-1-1.73v-8c0-.55-.45-1-1-1s-1,.45-1,1v1h-13.07c-1.62,0-2.93-1.32-2.93-2.93v-.16c2.51-.42,4.49-2.4,4.91-4.91h8.73c2.95,0,5.36,2.4,5.36,5.36v11.38Zm4-4.73h-2v-2h2v2Z" fill="#4c241d"/><circle cx="23.5" cy="37.5" r="1.13" fill="#4c241d"/><circle cx="39.5" cy="35.5" r="1.13" fill="#4c241d"/><circle cx="34.5" cy="35.5" r="1.13" fill="#4c241d"/></svg>
