<?xml version="1.0" encoding="UTF-8"?>
<svg xmlns="http://www.w3.org/2000/svg" id="a" width="65px" height="65px" viewBox="0 0 65 65"><circle cx="31.5" cy="33.5" r="21.5" fill="#e5efef"/><path d="m20.72,7h15.78v8h-20.5v-3.28c0-2.61,2.12-4.72,4.72-4.72Z" fill="#efefd2"/><path d="m20.72,7c2.66.11,4.28,2.25,4.28,5v39.3c0,3.7,2.3,6.7,6,6.7h24l4-2.99V12.66c0-3.13-2.53-5.66-5.66-5.66H20.72Z" fill="#fff"/><path d="m31,58h27.22c2.64,0,4.78-2.14,4.78-4.78v-2.22h-27v1.5c0,2.91-2.27,5.3-5.13,5.49h.13Z" fill="#efefd2"/><path d="m49,42h-12c-.55,0-1-.45-1-1s.45-1,1-1h12c.55,0,1,.45,1,1s-.45,1-1,1Z" fill="#b5a19c"/><path d="m52,45h-18c-.55,0-1-.45-1-1s.45-1,1-1h18c.55,0,1,.45,1,1s-.45,1-1,1Z" fill="#b5a19c"/><path d="m43.03,32.77l3.31,1.67c.61.31,1.29-.26,1.16-.96l-.58-3.27c-.06-.31.05-.62.27-.83l2.41-2.25c.54-.5.27-1.44-.44-1.54l-3.5-.49c-.26-.04-.49-.2-.62-.45l-1.64-3.18c-.31-.61-1.13-.61-1.45,0l-1.64,3.18c-.13.25-.36.41-.62.45l-3.5.49c-.7.1-.97,1.04-.44,1.54l2.41,2.25c.22.21.32.52.27.83l-.58,3.27c-.13.71.55,1.27,1.16.96l3.31-1.67c.22-.11.48-.11.7,0Z" fill="#ffce56"/><path d="m16,16h8v35.3c0,4.46,2.94,7.7,7,7.7h27.22c3.19,0,5.78-2.59,5.78-5.78v-2.22c0-.55-.45-1-1-1h-3V12.66c0-3.67-2.99-6.66-6.66-6.66H20.72c-3.16,0-5.72,2.57-5.72,5.72v3.28c0,.55.45,1,1,1Zm46,37.22c0,2.08-1.7,3.78-3.78,3.78h-23.03c1.12-1.17,1.81-2.76,1.81-4.5v-.5h25v1.22Zm-4-40.56v37.34h-22c-.55,0-1,.45-1,1v1.5c0,2.39-1.87,4.36-4.25,4.49,0,0,0,0,0,0-2.8-.13-4.74-2.44-4.74-5.69V12c0-1.59-.49-2.96-1.3-4h28.64c2.57,0,4.66,2.09,4.66,4.66Zm-41-.94c0-2.02,1.62-3.66,3.7-3.71,2.01.09,3.3,1.65,3.3,3.99v2h-7v-2.28Z" fill="#4c241d"/><path d="m37.46,30.03l-.58,3.27c-.13.72.15,1.44.73,1.87.32.24.69.36,1.07.36.27,0,.55-.06.8-.19l3.21-1.62,3.21,1.62c.61.31,1.32.24,1.87-.16.58-.43.86-1.15.73-1.87l-.62-3.19,2.41-2.25c.54-.51.74-1.27.51-1.98-.22-.69-.79-1.18-1.49-1.28l-3.4-.47-1.6-3.11c-.32-.62-.94-1-1.61-1s-1.3.38-1.61,1l-1.6,3.11-3.4.47c-.7.1-1.27.59-1.49,1.28-.23.72-.03,1.48.51,1.98l2.38,2.18Zm2.38-3.95c.58-.08,1.09-.45,1.37-.98l1.47-2.86,1.47,2.86c.27.54.79.9,1.37.99l3.24.45-2.26,2.11c-.46.44-.68,1.1-.57,1.74l.54,3-2.99-1.51c-.5-.25-1.1-.25-1.6,0l-2.99,1.51.54-3c.11-.64-.1-1.3-.57-1.74l-2.3-2.1,3.29-.46Z" fill="#4c241d"/><path d="m.29,40.71c.2.2.45.29.71.29s.51-.1.71-.29l.79-.79.79.79c.2.2.45.29.71.29s.51-.1.71-.29c.39-.39.39-1.02,0-1.41l-.79-.79.79-.79c.39-.39.39-1.02,0-1.41s-1.02-.39-1.41,0l-.79.79-.79-.79c-.39-.39-1.02-.39-1.41,0s-.39,1.02,0,1.41l.79.79-.79.79c-.39.39-.39,1.02,0,1.41Z" fill="#4c241d"/><circle cx="17" cy="37" r="1" fill="#4c241d"/><circle cx="12" cy="28" r="1" fill="#4c241d"/></svg>
