<?xml version="1.0" encoding="UTF-8"?>
<svg xmlns="http://www.w3.org/2000/svg" id="a" width="65px" height="65px" viewBox="0 0 65 65"><circle cx="38" cy="22" r="20" fill="#eef4ce"/><polygon points="52 22 52 59 20 59 20 15 45 15 52 22" fill="#fff"/><polygon points="45 15 52 22 45 22 45 15" fill="#d6d6d6"/><path d="m12,9h0c1.66,0,3,1.34,3,3v44h-6V12c0-1.66,1.34-3,3-3Z" fill="#ffce56"/><polygon points="12 63 9 56 15 56 12 63" fill="#6b4f5b"/><path d="m26,8c0,1.65,1.35,3,3,3s3-1.35,3-3-1.35-3-3-3-3,1.35-3,3Zm4,0c0,.55-.45,1-1,1s-1-.45-1-1,.45-1,1-1,1,.45,1,1Z" fill="#4c241d"/><path d="m52.93,10.86c-.59,0-1.07.48-1.07,1.07s.48,1.07,1.07,1.07,1.07-.48,1.07-1.07-.48-1.07-1.07-1.07Z" fill="#4c241d"/><path d="m47.71.29c-.39-.39-1.02-.39-1.41,0l-.71.71-.71-.71c-.39-.39-1.02-.39-1.41,0-.39.39-.39,1.02,0,1.41l.71.71-.71.71c-.39.39-.39,1.02,0,1.41.2.2.45.29.71.29s.51-.1.71-.29l.71-.71.71.71c.2.2.45.29.71.29s.51-.1.71-.29c.39-.39.39-1.02,0-1.41l-.71-.71.71-.71c.39-.39.39-1.02,0-1.41Z" fill="#4c241d"/><path d="m45.71,14.29c-.19-.19-.44-.29-.71-.29h-25c-.55,0-1,.45-1,1v44c0,.55.45,1,1,1h32c.55,0,1-.45,1-1V22c0-.27-.11-.52-.29-.71l-7-7Zm.29,3.12l3.59,3.59h-3.59v-3.59Zm-25,40.59V16h23v6c0,.55.45,1,1,1h6v35h-30Z" fill="#4c241d"/><path d="m43,30h-14c-.55,0-1,.45-1,1s.45,1,1,1h14c.55,0,1-.45,1-1s-.45-1-1-1Z" fill="#4c241d"/><path d="m43,36h-14c-.55,0-1,.45-1,1s.45,1,1,1h14c.55,0,1-.45,1-1s-.45-1-1-1Z" fill="#4c241d"/><path d="m43,42h-14c-.55,0-1,.45-1,1s.45,1,1,1h14c.55,0,1-.45,1-1s-.45-1-1-1Z" fill="#4c241d"/><path d="m12,8c-2.21,0-4,1.79-4,4v44c0,.14.03.27.08.39l3,7c.16.37.52.61.92.61s.76-.24.92-.61l3-7c.05-.12.08-.26.08-.39V12c0-2.21-1.79-4-4-4Zm2,4v43h-1V10.28c.59.35,1,.98,1,1.72Zm-3-1.72v44.72h-1V12c0-.74.41-1.37,1-1.72Zm1,50.18l-1.48-3.46h2.97l-1.48,3.46Z" fill="#4c241d"/></svg>
