<?xml version="1.0" encoding="UTF-8"?>
<svg xmlns="http://www.w3.org/2000/svg" id="a" width="65px" height="65px" viewBox="0 0 65 65"><circle cx="31.5" cy="30.5" r="21.5" fill="#e5efef"/><rect x="1" y="36" width="62" height="4" fill="#bf7e68"/><rect x="56" y="40" width="3" height="21" fill="#bf7e68"/><rect x="5" y="40" width="3" height="21" fill="#bf7e68"/><path d="m50,32h10v4h-10c-1.1,0-2-.9-2-2h0c0-1.1.9-2,2-2Z" fill="#ffce56"/><path d="m50,24h10v4h-10c-1.1,0-2-.9-2-2h0c0-1.1.9-2,2-2Z" fill="#a9ba5a"/><path d="m50,28h10c1.1,0,2,.9,2,2h0c0,1.1-.9,2-2,2h-10v-4h0Z" fill="#fc8c29"/><rect x="19" y="34" width="12" height="2" fill="#6b4f5b"/><polygon points="24 36 7 36 4 24 21 24 24 36" fill="#fff"/><circle cx="13.5" cy="29.5" r="1.5" fill="#ccc"/><circle cx="35" cy="14" r="7" fill="#fc8c29"/><path d="m63,35h-2v-2.18c1.16-.41,2-1.51,2-2.82s-.84-2.4-2-2.82v-3.18c0-.55-.45-1-1-1h-10c-1.65,0-3,1.35-3,3,0,1.3.84,2.4,2,2.82v2.37c-1.16.41-2,1.51-2,2.82,0,.35.07.69.18,1h-15.18v-1c0-.55-.45-1-1-1h-6.72l-2.31-9.24c-.11-.45-.51-.76-.97-.76H4c-.31,0-.6.14-.79.38-.19.24-.26.56-.18.86l2.69,10.76H1c-.55,0-1,.45-1,1v4c0,.55.45,1,1,1h3v20c0,.55.45,1,1,1h3c.55,0,1-.45,1-1v-12h46v12c0,.55.45,1,1,1h3c.55,0,1-.45,1-1v-20h3c.55,0,1-.45,1-1v-4c0-.55-.45-1-1-1Zm-3-4h-9v-2h9c.55,0,1,.45,1,1s-.45,1-1,1Zm-10-6h9v2h-9c-.55,0-1-.45-1-1s.45-1,1-1Zm-1,9c0-.55.45-1,1-1h9v2h-9c-.55,0-1-.45-1-1ZM5.28,25h14.94l2.5,10H7.78l-2.5-10Zm.72,35v-19h1v19h-1Zm3-13v-6h46v6H9Zm49,13h-1v-19h1v19Zm4-21H2v-2h60v2Z" fill="#4c241d"/><circle cx="15" cy="17" r="1" fill="#4c241d"/><path d="m52.88,17.12c.2.2.45.29.71.29s.51-.1.71-.29l.71-.71.71.71c.2.2.45.29.71.29s.51-.1.71-.29c.39-.39.39-1.02,0-1.41l-.71-.71.71-.71c.39-.39.39-1.02,0-1.41s-1.02-.39-1.41,0l-.71.71-.71-.71c-.39-.39-1.02-.39-1.41,0s-.39,1.02,0,1.41l.71.71-.71.71c-.39.39-.39,1.02,0,1.41Z" fill="#4c241d"/><circle cx="13.5" cy="29.5" r="1.5" fill="#4c241d"/><path d="m34,10v4c0,.27.11.52.29.71l2,2c.2.2.45.29.71.29s.51-.1.71-.29c.39-.39.39-1.02,0-1.41l-1.71-1.71v-3.59c0-.55-.45-1-1-1s-1,.45-1,1Z" fill="#4c241d"/><path d="m35,4c-.55,0-1,.45-1,1v1.07c-3.94.49-7,3.86-7,7.93,0,4.41,3.59,8,8,8s8-3.59,8-8c0-4.07-3.06-7.44-7-7.93v-1.07c0-.55-.45-1-1-1Zm6,10c0,3.31-2.69,6-6,6s-6-2.69-6-6,2.69-6,6-6,6,2.69,6,6Z" fill="#4c241d"/><path d="m17,11c1.65,0,3-1.35,3-3s-1.35-3-3-3-3,1.35-3,3,1.35,3,3,3Zm0-4c.55,0,1,.45,1,1s-.45,1-1,1-1-.45-1-1,.45-1,1-1Z" fill="#4c241d"/></svg>
