<?xml version="1.0" encoding="UTF-8"?>
<svg xmlns="http://www.w3.org/2000/svg" id="a" width="65px" height="65px" viewBox="0 0 65 65"><circle cx="23" cy="26" r="19" fill="#e2e2e2"/><path d="m52,1H19.3c-1.27,0-2.3,1.05-2.3,2.34v57.32c0,1.29,1.03,2.34,2.3,2.34h41.4c1.27,0,2.3-1.05,2.3-2.34V12L52,1Z" fill="#fff"/><polygon points="52 12 63 12 52 1 52 12" fill="#efefd2"/><rect x="24" y="32" width="32" height="18" fill="#e2e2e2"/><path d="m52.71.29c-.19-.19-.44-.29-.71-.29H19c-1.65,0-3,1.35-3,3v58c0,1.65,1.35,3,3,3h42c1.65,0,3-1.35,3-3V12c0-.27-.11-.52-.29-.71L52.71.29Zm.29,3.12l7.59,7.59h-7.59V3.41Zm8,58.59H19c-.55,0-1-.45-1-1V3c0-.55.45-1,1-1h32v10c0,.55.45,1,1,1h10v48c0,.55-.45,1-1,1Z" fill="#4c241d"/><path d="m3.88,41.12c.2.2.45.29.71.29s.51-.1.71-.29l.71-.71.71.71c.2.2.45.29.71.29s.51-.1.71-.29c.39-.39.39-1.02,0-1.41l-.71-.71.71-.71c.39-.39.39-1.02,0-1.41s-1.02-.39-1.41,0l-.71.71-.71-.71c-.39-.39-1.02-.39-1.41,0s-.39,1.02,0,1.41l.71.71-.71.71c-.39.39-.39,1.02,0,1.41Z" fill="#4c241d"/><circle cx="13" cy="36" r="1" fill="#4c241d"/><circle cx="10" cy="25" r="1" fill="#4c241d"/><path d="m56,31H24c-.55,0-1,.45-1,1v18c0,.55.45,1,1,1h32c.55,0,1-.45,1-1v-18c0-.55-.45-1-1-1Zm-1,2v6.81l-2.44-1.64c-.35-.24-.82-.23-1.16.03l-3.09,2.32-3.44-6.02c-.19-.33-.55-.52-.94-.5-.38.03-.72.27-.86.63l-3.36,8.41-2.93-3.66c-.23-.29-.6-.43-.97-.36-.37.07-.66.34-.77.69l-2.12,7.08-3.98-11.13c-.13-.35-.44-.6-.81-.65-.37-.05-.74.11-.95.42l-2.18,3.1v-5.53h30Zm-30,9.01l2.71-3.85,3.87,10.84h-6.58v-6.99Zm9.34,6.99l2.07-6.89,2.81,3.51c.22.28.58.42.93.36.35-.05.65-.29.78-.62l3.23-8.08,2.97,5.2c.14.25.38.42.67.48.28.06.57,0,.8-.18l3.43-2.57,2.97,2v6.78h-20.66Z" fill="#4c241d"/><path d="m56,20h-22c-.55,0-1,.45-1,1s.45,1,1,1h22c.55,0,1-.45,1-1s-.45-1-1-1Z" fill="#4c241d"/><path d="m56,23h-15c-.55,0-1,.45-1,1s.45,1,1,1h15c.55,0,1-.45,1-1s-.45-1-1-1Z" fill="#4c241d"/><path d="m56,26h-18c-.55,0-1,.45-1,1s.45,1,1,1h18c.55,0,1-.45,1-1s-.45-1-1-1Z" fill="#4c241d"/></svg>
