<?xml version="1.0" encoding="UTF-8"?>
<svg xmlns="http://www.w3.org/2000/svg" id="a" width="65px" height="65px" viewBox="0 0 65 65"><circle cx="31.4" cy="31.8" r="23" fill="#ffe8dc"/><polygon points="50 15 32 32 14 15 22 1 42 1 50 15" fill="#e66353"/><circle cx="32" cy="51" r="12" fill="#ffce56"/><polygon points="32 54.25 27.13 58 29.18 52.21 24.11 48.73 30.26 48.9 32 43 33.74 48.9 39.89 48.73 34.82 52.21 36.87 58 32 54.25" fill="#ffec95"/><path d="m52,33h-1v-1c0-.55-.45-1-1-1s-1,.45-1,1v1h-1c-.55,0-1,.45-1,1s.45,1,1,1h1v1c0,.55.45,1,1,1s1-.45,1-1v-1h1c.55,0,1-.45,1-1s-.45-1-1-1Z" fill="#4c241d"/><circle cx="19" cy="34" r="1" fill="#4c241d"/><circle cx="56" cy="25" r="1" fill="#4c241d"/><path d="m35.96,38.62c-.16-1.69-1.36-3.06-2.96-3.48v-2.71l17.69-16.7c.34-.32.41-.82.18-1.22L42.87.5c-.18-.31-.51-.5-.87-.5h-20c-.36,0-.69.19-.87.5l-1.3,2.28c-.11.12-.19.25-.23.41l-6.46,11.31c-.23.4-.15.91.18,1.22l17.69,16.7v2.71c-1.6.42-2.8,1.79-2.96,3.48-5.24,1.68-9.04,6.59-9.04,12.38,0,7.17,5.83,13,13,13s13-5.83,13-13c0-5.79-3.8-10.7-9.04-12.38ZM20.58,5.5l1.94,3.4-5.82,3.37,3.87-6.77Zm2.94,5.14l1.55,2.71-7.04,4.08-2.37-2.24,7.86-4.56Zm2.54,4.45l1.49,2.61-5.73,3.32-2.28-2.15,6.52-3.78Zm2.48,4.34l1.43,2.51-4.45,2.58-2.19-2.07,5.21-3.02Zm2.43,4.24l1.46,2.56-3.15,1.83-2.24-2.11,3.92-2.28Zm2.46,4.3l.48.85-1.91,1.81-1.2-1.13,2.63-1.52Zm8-6.26l-2.2,2.08L26.77,2h3.39l11.27,19.71ZM32.47,2h3.12l9.37,16.39-2.03,1.92L32.47,2Zm16.28,12.81l-2.29,2.16-8.56-14.97h3.53l7.32,12.81ZM22.58,2h1.88l13.27,23.21-2.32,2.19L21.73,3.48l.85-1.48Zm9.42,35c.79,0,1.47.47,1.8,1.14-.59-.08-1.19-.14-1.8-.14s-1.21.06-1.8.14c.32-.67,1-1.14,1.8-1.14Zm0,25c-6.07,0-11-4.93-11-11s4.93-11,11-11,11,4.93,11,11-4.93,11-11,11Z" fill="#4c241d"/><path d="m32.96,42.72c-.12-.42-.52-.72-.96-.72s-.83.29-.96.72l-1.52,5.16-5.38-.15c-.49,0-.84.27-.98.69-.14.42.02.88.39,1.13l4.44,3.04-1.8,5.07c-.15.42,0,.88.35,1.14.36.26.85.25,1.2-.02l4.26-3.28,4.26,3.28c.18.14.39.21.61.21s.41-.06.59-.19c.36-.26.5-.73.35-1.14l-1.8-5.07,4.44-3.04c.37-.25.52-.71.39-1.13-.13-.41-.52-.69-.95-.69,0,0-.02,0-.03,0l-5.38.15-1.52-5.16Zm1.29,8.67c-.37.26-.53.73-.38,1.16l.92,2.6-2.19-1.68c-.18-.14-.39-.21-.61-.21s-.43.07-.61.21l-2.19,1.68.92-2.6c.15-.43,0-.9-.38-1.16l-2.28-1.56,2.76.07s.02,0,.03,0c.44,0,.83-.29.96-.72l.78-2.65.78,2.65c.13.43.52.72.96.72,0,0,.02,0,.03,0l2.76-.07-2.28,1.56Z" fill="#4c241d"/><path d="m15.71,40.29c-.39-.39-1.02-.39-1.41,0l-.79.79-.79-.79c-.39-.39-1.02-.39-1.41,0s-.39,1.02,0,1.41l.79.79-.79.79c-.39.39-.39,1.02,0,1.41.2.2.45.29.71.29s.51-.1.71-.29l.79-.79.79.79c.2.2.45.29.71.29s.51-.1.71-.29c.39-.39.39-1.02,0-1.41l-.79-.79.79-.79c.39-.39.39-1.02,0-1.41Z" fill="#4c241d"/></svg>
