<?xml version="1.0" encoding="UTF-8"?>
<svg xmlns="http://www.w3.org/2000/svg" id="a" width="65px" height="65px" viewBox="0 0 65 65"><circle cx="32" cy="40" r="19" fill="#e2e2e2"/><rect x="1" y="1" width="62" height="47" rx="2" ry="2" fill="#fff"/><rect x="10" y="19.34" width="3.77" height="19.49" fill="#f53e28"/><rect x="14" y="31" width="4" height="8" fill="#a9ba5a"/><rect x="18" y="29" width="4" height="10" fill="#fc8c29"/><rect x="6" y="29" width="4" height="10" fill="#fc8c29"/><path d="m35.64,17.36l2.03-5.86c-.83-.32-1.74-.5-2.69-.5-4.02,0-7.28,3.13-7.28,7s3.26,7,7.28,7,7.28-3.13,7.28-7c0-.21-.01-.43-.03-.64h-6.59Z" fill="#02eae6"/><path d="m37.68,11.5l-2.03,5.86h6.59c-.25-2.67-2.06-4.91-4.55-5.86Z" fill="#f53e28"/><circle cx="44.5" cy="35.5" r="3.5" fill="#bf7e68"/><circle cx="51.5" cy="35.5" r="3.5" fill="#ffce56"/><circle cx="5.5" cy="5.5" r="1.5" fill="#e66353"/><circle cx="9.5" cy="5.5" r="1.5" fill="#ffce56"/><circle cx="13.5" cy="5.5" r="1.5" fill="#a9ba5a"/><path d="m61,0H3C1.35,0,0,1.35,0,3v43c0,1.65,1.35,3,3,3h58c1.65,0,3-1.35,3-3V3c0-1.65-1.35-3-3-3Zm0,47H3c-.55,0-1-.45-1-1V3c0-.55.45-1,1-1h58c.55,0,1,.45,1,1v3H27c-.55,0-1,.45-1,1s.45,1,1,1h35v38c0,.55-.45,1-1,1Z" fill="#4c241d"/><path d="m22,28h-4c-.55,0-1,.45-1,1v1h-2v-11c0-.55-.45-1-1-1h-4c-.55,0-1,.45-1,1v9h-3c-.55,0-1,.45-1,1v10c0,.55.45,1,1,1h16c.55,0,1-.45,1-1v-10c0-.55-.45-1-1-1Zm-15,2h2v8h-2v-8Zm6,8h-2v-18h2v18Zm4-6v6h-2v-6h2Zm4,6h-2v-8h2v8Z" fill="#4c241d"/><path d="m50.52,58.98c.2.2.45.29.71.29s.51-.1.71-.29l1.06-1.06,1.06,1.06c.2.2.45.29.71.29s.51-.1.71-.29c.39-.39.39-1.02,0-1.41l-1.06-1.06,1.06-1.06c.39-.39.39-1.02,0-1.41s-1.02-.39-1.41,0l-1.06,1.06-1.06-1.06c-.39-.39-1.02-.39-1.41,0s-.39,1.02,0,1.41l1.06,1.06-1.06,1.06c-.39.39-.39,1.02,0,1.41Z" fill="#4c241d"/><path d="m24,55.5c0-1.93-1.57-3.5-3.5-3.5s-3.5,1.57-3.5,3.5,1.57,3.5,3.5,3.5,3.5-1.57,3.5-3.5Zm-5,0c0-.83.67-1.5,1.5-1.5s1.5.67,1.5,1.5-.67,1.5-1.5,1.5-1.5-.67-1.5-1.5Z" fill="#4c241d"/><path d="m37.63,52.5c0-.63-.51-1.13-1.13-1.13s-1.13.51-1.13,1.13.51,1.13,1.13,1.13,1.13-.51,1.13-1.13Z" fill="#4c241d"/><path d="m47,13h8c.55,0,1-.45,1-1s-.45-1-1-1h-8c-.55,0-1,.45-1,1s.45,1,1,1Z" fill="#4c241d"/><path d="m47,17h4c.55,0,1-.45,1-1s-.45-1-1-1h-4c-.55,0-1,.45-1,1s.45,1,1,1Z" fill="#4c241d"/><path d="m57,19h-10c-.55,0-1,.45-1,1s.45,1,1,1h10c.55,0,1-.45,1-1s-.45-1-1-1Z" fill="#4c241d"/><path d="m51.5,31c-1.42,0-2.67.67-3.5,1.71-.83-1.03-2.08-1.71-3.5-1.71-2.48,0-4.5,2.02-4.5,4.5s2.02,4.5,4.5,4.5c1.42,0,2.67-.67,3.5-1.71.83,1.03,2.08,1.71,3.5,1.71,2.48,0,4.5-2.02,4.5-4.5s-2.02-4.5-4.5-4.5Zm-7,7c-1.38,0-2.5-1.12-2.5-2.5s1.12-2.5,2.5-2.5,2.5,1.12,2.5,2.5-1.12,2.5-2.5,2.5Zm7,0c-1.38,0-2.5-1.12-2.5-2.5s1.12-2.5,2.5-2.5,2.5,1.12,2.5,2.5-1.12,2.5-2.5,2.5Z" fill="#4c241d"/><path d="m43,18c0-4.41-3.59-8-8-8-4.07,0-7.44,3.06-7.93,7h-4.92c-1.74,0-3.15,1.38-3.15,3.07v4.93c0,.55.45,1,1,1s1-.45,1-1v-4.93c0-.59.52-1.07,1.15-1.07h4.92c.49,3.94,3.86,7,7.93,7,4.41,0,8-3.59,8-8Zm-2.09-1h-4.29l1.92-3.84c1.23.9,2.11,2.27,2.37,3.84Zm-5.91,7c-3.31,0-6-2.69-6-6s2.69-6,6-6c.61,0,1.2.09,1.75.26l-2.65,5.29c-.16.31-.14.68.04.97s.5.47.85.47h5.91c-.48,2.83-2.94,5-5.91,5Z" fill="#4c241d"/></svg>
