<?xml version="1.0" encoding="UTF-8"?>
<svg xmlns="http://www.w3.org/2000/svg" id="a" width="65px" height="65px" viewBox="0 0 65 65"><circle cx="22.5" cy="32.5" r="21.5" fill="#e5efef"/><path d="m49,1H13.3c-1.27,0-2.3,1.05-2.3,2.34v57.32c0,1.29,1.03,2.34,2.3,2.34h41.4c1.27,0,2.3-1.05,2.3-2.34V9L49,1Z" fill="#fff"/><polygon points="49 9 57 9 49 1 49 9" fill="#efefd2"/><circle cx="51" cy="34" r="12" fill="#2ee52b"/><path d="m58,23.06v-14.06c0-.27-.11-.52-.29-.71L49.71.29c-.19-.19-.44-.29-.71-.29H13c-1.65,0-3,1.35-3,3v58c0,1.65,1.35,3,3,3h42c1.65,0,3-1.35,3-3v-16.06c3.6-2.31,6-6.35,6-10.94s-2.4-8.62-6-10.94ZM50,3.41l4.59,4.59h-4.59V3.41Zm6,57.59c0,.55-.45,1-1,1H13c-.55,0-1-.45-1-1V3c0-.55.45-1,1-1h35v7c0,.55.45,1,1,1h7v12c-1.54-.64-3.23-1-5-1-7.17,0-13,5.83-13,13s5.83,13,13,13c1.77,0,3.46-.36,5-1v15Zm-5-16c-6.07,0-11-4.93-11-11s4.93-11,11-11,11,4.93,11,11-4.93,11-11,11Z" fill="#4c241d"/><path d="m55.37,31.22l-5.5,5.5-2.18-2.1c-.4-.38-1.03-.37-1.41.03-.38.4-.37,1.03.03,1.41l2.89,2.79c.19.19.44.28.69.28s.51-.1.71-.29l6.19-6.19c.39-.39.39-1.02,0-1.41s-1.02-.39-1.41,0Z" fill="#4c241d"/><path d="m4.71,37.29c-.39-.39-1.02-.39-1.41,0l-.79.79-.79-.79c-.39-.39-1.02-.39-1.41,0s-.39,1.02,0,1.41l.79.79-.79.79c-.39.39-.39,1.02,0,1.41.2.2.45.29.71.29s.51-.1.71-.29l.79-.79.79.79c.2.2.45.29.71.29s.51-.1.71-.29c.39-.39.39-1.02,0-1.41l-.79-.79.79-.79c.39-.39.39-1.02,0-1.41Z" fill="#4c241d"/><circle cx="7" cy="33" r="1" fill="#4c241d"/><circle cx="4" cy="25" r="1" fill="#4c241d"/></svg>
