<?xml version="1.0" encoding="UTF-8"?>
<svg xmlns="http://www.w3.org/2000/svg" id="a" width="65px" height="65px" viewBox="0 0 65 65"><circle cx="40" cy="24" r="20" fill="#eef4ce"/><polygon points="39 26 39 63 7 63 7 19 32 19 39 26" fill="#eaeaea"/><polygon points="48 16 48 53 16 53 16 9 41 9 48 16" fill="#fff"/><polygon points="41 9 48 16 41 16 41 9" fill="#d6d6d6"/><path d="m35.55,30.46h3v9.68c0,.83-.67,1.5-1.5,1.5h0c-.83,0-1.5-.67-1.5-1.5v-9.68h0Z" transform="translate(-14.64 36.76) rotate(-45)" fill="#bf7e68"/><circle cx="29.5" cy="28.5" r="7.5" fill="#9dc1e4"/><path d="m55,17c-1.65,0-3,1.35-3,3s1.35,3,3,3,3-1.35,3-3-1.35-3-3-3Zm0,4c-.55,0-1-.45-1-1s.45-1,1-1,1,.45,1,1-.45,1-1,1Z" fill="#4c241d"/><path d="m50.07,0c-.59,0-1.07.48-1.07,1.07s.48,1.07,1.07,1.07,1.07-.48,1.07-1.07-.48-1.07-1.07-1.07Z" fill="#4c241d"/><path d="m60.54,6.29c-.39-.39-1.02-.39-1.41,0l-.71.71-.71-.71c-.39-.39-1.02-.39-1.41,0s-.39,1.02,0,1.41l.71.71-.71.71c-.39.39-.39,1.02,0,1.41.2.2.45.29.71.29s.51-.1.71-.29l.71-.71.71.71c.2.2.45.29.71.29s.51-.1.71-.29c.39-.39.39-1.02,0-1.41l-.71-.71.71-.71c.39-.39.39-1.02,0-1.41Z" fill="#4c241d"/><path d="m41.71,8.29c-.19-.19-.44-.29-.71-.29h-25c-.55,0-1,.45-1,1v9H7c-.55,0-1,.45-1,1v44c0,.55.45,1,1,1h32c.55,0,1-.45,1-1v-9h8c.55,0,1-.45,1-1V16c0-.27-.11-.52-.29-.71l-7-7Zm.29,3.12l3.59,3.59h-3.59v-3.59Zm-4,50.59H8V20h7v33c0,.55.45,1,1,1h22v8Zm-21-10V10h23v6c0,.55.45,1,1,1h6v35h-30Z" fill="#4c241d"/><path d="m37.01,32.47c.63-1.19.99-2.54.99-3.97,0-4.69-3.81-8.5-8.5-8.5s-8.5,3.81-8.5,8.5,3.81,8.5,8.5,8.5c1.44,0,2.79-.36,3.97-.99l4.7,4.7c.47.47,1.1.73,1.77.73s1.3-.26,1.77-.73.73-1.1.73-1.77-.26-1.3-.73-1.77l-4.7-4.7Zm-14.01-3.97c0-3.58,2.92-6.5,6.5-6.5s6.5,2.92,6.5,6.5-2.92,6.5-6.5,6.5-6.5-2.92-6.5-6.5Zm17.29,10.79c-.13.13-.28.15-.35.15s-.23-.02-.35-.15l-4.45-4.45c.25-.22.49-.46.71-.71l4.45,4.45c.13.13.15.28.15.35s-.02.23-.15.35Z" fill="#4c241d"/><path d="m32.53,25.16c-.47-.29-1.09-.14-1.37.34l-2.36,3.89-1.09-1.1c-.39-.39-1.02-.39-1.41,0-.39.39-.4,1.02,0,1.41l1.99,2.01c.19.19.44.3.71.3.04,0,.08,0,.12,0,.31-.04.58-.21.74-.47l3.02-4.99c.29-.47.14-1.09-.34-1.37Z" fill="#4c241d"/></svg>
