<?xml version="1.0" encoding="UTF-8"?>
<svg xmlns="http://www.w3.org/2000/svg" id="a" width="65px" height="65px" viewBox="0 0 65 65"><circle cx="26" cy="37" r="23" fill="#efefd2"/><circle cx="46.06" cy="30.81" r="17.19" transform="translate(5.42 68.48) rotate(-76.62)" fill="#ffce56"/><circle cx="46.06" cy="30.81" r="12.21" transform="translate(1.95 64.35) rotate(-71.03)" fill="#fff"/><rect x="1" y="8" width="11" height="10" fill="#fff"/><path d="m5.5,16.49c-.29,0-.58-.13-.77-.36l-1.58-1.87c-.36-.42-.3-1.05.12-1.41s1.05-.3,1.41.12l.78.93,2.74-3.52c.34-.44.97-.51,1.4-.17.44.34.51.97.17,1.4l-3.5,4.49c-.19.24-.47.38-.77.39h-.02Z" fill="#a9ba5a"/><rect x="1" y="21" width="11" height="10" fill="#fff"/><path d="m5.5,29.49c-.29,0-.58-.13-.77-.36l-1.58-1.87c-.36-.42-.3-1.05.12-1.41s1.05-.3,1.41.12l.78.93,2.74-3.52c.34-.44.97-.51,1.4-.17.44.34.51.97.17,1.4l-3.5,4.49c-.19.24-.47.38-.77.39h-.02Z" fill="#a9ba5a"/><rect x="1" y="34" width="11" height="10" fill="#fff"/><path d="m5.5,42.49c-.29,0-.58-.13-.77-.36l-1.58-1.87c-.36-.42-.3-1.05.12-1.41.42-.36,1.05-.3,1.41.12l.78.93,2.74-3.52c.34-.44.97-.51,1.4-.17.44.34.51.97.17,1.4l-3.5,4.49c-.19.24-.47.38-.77.39h-.02Z" fill="#a9ba5a"/><rect x="1" y="47" width="11" height="10" fill="#fff"/><line x1="37.6" y1="39.46" x2="39.7" y2="37.31" fill="#fff"/><line x1="51.54" y1="25.12" x2="53.9" y2="22.69" fill="#fff"/><line x1="53.9" y1="39.46" x2="51.81" y2="37.31" fill="#fff"/><line x1="39.96" y1="25.12" x2="37.6" y2="22.69" fill="#fff"/><polyline points="45.75 26.38 45.75 31.38 48.75 34.38" fill="#fff"/><path d="m22.5,11c1.93,0,3.5-1.57,3.5-3.5s-1.57-3.5-3.5-3.5-3.5,1.57-3.5,3.5,1.57,3.5,3.5,3.5Zm0-5c.83,0,1.5.67,1.5,1.5s-.67,1.5-1.5,1.5-1.5-.67-1.5-1.5.67-1.5,1.5-1.5Z" fill="#4c241d"/><circle cx="17" cy="49" r="1" fill="#4c241d"/><path d="m54.38,53.29c-.39-.39-1.02-.39-1.41,0l-1.13,1.13-1.13-1.13c-.39-.39-1.02-.39-1.41,0s-.39,1.02,0,1.41l1.13,1.13-1.13,1.13c-.39.39-.39,1.02,0,1.41.2.2.45.29.71.29s.51-.1.71-.29l1.13-1.13,1.13,1.13c.2.2.45.29.71.29s.51-.1.71-.29c.39-.39.39-1.02,0-1.41l-1.13-1.13,1.13-1.13c.39-.39.39-1.02,0-1.41Z" fill="#4c241d"/><path d="m45.81,13c-10.03,0-18.19,8.16-18.19,18.19s8.16,18.19,18.19,18.19,18.19-8.16,18.19-18.19-8.16-18.19-18.19-18.19Zm0,34.38c-8.93,0-16.19-7.26-16.19-16.19s7.26-16.19,16.19-16.19,16.19,7.26,16.19,16.19-7.26,16.19-16.19,16.19Z" fill="#4c241d"/><path d="m45.81,17.98c-7.28,0-13.21,5.92-13.21,13.21s5.92,13.21,13.21,13.21,13.21-5.92,13.21-13.21-5.92-13.21-13.21-13.21Zm8.52,20.47l-1.8-1.85c-.38-.4-1.02-.4-1.41-.02-.4.39-.4,1.02-.02,1.41l1.81,1.86c-1.7,1.4-3.83,2.29-6.15,2.49v-2.97c0-.55-.45-1-1-1s-1,.45-1,1v2.96c-2.31-.22-4.41-1.13-6.1-2.53l1.76-1.81c.38-.4.38-1.03-.02-1.41-.4-.38-1.03-.38-1.41.02l-1.74,1.79c-1.4-1.66-2.33-3.74-2.57-6.02h2.09c.55,0,1-.45,1-1s-.45-1-1-1h-2.11c.18-2.48,1.17-4.74,2.71-6.52l1.9,1.95c.2.2.46.3.72.3s.5-.09.7-.28c.4-.39.4-1.02.02-1.41l-1.89-1.95c1.67-1.34,3.72-2.22,5.97-2.43v2.34c0,.55.45,1,1,1s1-.45,1-1v-2.35c2.26.19,4.33,1.05,6.01,2.39l-1.94,2c-.38.4-.38,1.03.02,1.41.19.19.45.28.7.28s.52-.1.72-.3l1.95-2.01c1.57,1.78,2.58,4.07,2.76,6.58h-2.22c-.55,0-1,.45-1,1s.45,1,1,1h2.2c-.24,2.31-1.2,4.4-2.63,6.08Z" fill="#4c241d"/><path d="m46.75,30.97v-4.59c0-.55-.45-1-1-1s-1,.45-1,1v5c0,.27.11.52.29.71l3,3c.2.2.45.29.71.29s.51-.1.71-.29c.39-.39.39-1.02,0-1.41l-2.71-2.71Z" fill="#4c241d"/><path d="m1,19h11c.55,0,1-.45,1-1v-10c0-.55-.45-1-1-1H1c-.55,0-1,.45-1,1v10c0,.55.45,1,1,1Zm1-10h9v8H2v-8Z" fill="#4c241d"/><path d="m1,32h11c.55,0,1-.45,1-1v-10c0-.55-.45-1-1-1H1c-.55,0-1,.45-1,1v10c0,.55.45,1,1,1Zm1-10h9v8H2v-8Z" fill="#4c241d"/><path d="m1,45h11c.55,0,1-.45,1-1v-10c0-.55-.45-1-1-1H1c-.55,0-1,.45-1,1v10c0,.55.45,1,1,1Zm1-10h9v8H2v-8Z" fill="#4c241d"/><path d="m1,58h11c.55,0,1-.45,1-1v-10c0-.55-.45-1-1-1H1c-.55,0-1,.45-1,1v10c0,.55.45,1,1,1Zm1-10h9v8H2v-8Z" fill="#4c241d"/></svg>
