<?xml version="1.0" encoding="UTF-8"?>
<svg xmlns="http://www.w3.org/2000/svg" id="a" width="65px" height="65px" viewBox="0 0 65 65"><circle cx="27" cy="29" r="23" fill="#efefd2"/><rect x="6" y="36" width="54" height="4" fill="#bf7e68"/><rect x="8" y="40" width="49.99" height="3" fill="#b5a19c"/><polygon points="25 36 19 36 20 31 24 31 25 36" fill="#fff"/><path d="m53.41,63h0c-.5,0-.91-.4-.93-.9l-.66-19.1h3.18l-.66,19.1c-.02.5-.43.9-.93.9Z" fill="#bf7e68"/><path d="m12.41,63h0c-.5,0-.91-.4-.93-.9l-.66-19.1h3.18l-.66,19.1c-.02.5-.43.9-.93.9Z" fill="#bf7e68"/><path d="m52,21.38v-2.38h-4v2.34c-2.74.87-4.74,3.52-4.74,6.66h13.38c0-3.1-1.94-5.72-4.63-6.62Z" fill="#fff"/><path d="m31.18,34h9.64c1.75,0,3.18,1.42,3.18,3.18v11.82h-16v-11.82c0-1.75,1.42-3.18,3.18-3.18Z" fill="#fff"/><rect x="28" y="49" width="16" height="3" fill="#fff"/><rect x="9" y="27" width="26" height="4" fill="#fff"/><rect x="9" y="12" width="26" height="15" fill="#9dc1e4"/><path d="m60,35h-15.63c-.74-1.19-2.05-2-3.55-2h-9.64c-1.5,0-2.81.81-3.55,2h-1.81l-.6-3h9.78c.55,0,1-.45,1-1V12c0-.55-.45-1-1-1H9c-.55,0-1,.45-1,1v19c0,.55.45,1,1,1h9.78l-.6,3H6c-.55,0-1,.45-1,1v4c0,.55.45,1,1,1h1v2c0,.55.45,1,1,1h1.86l.63,18.14c.04,1.04.88,1.86,1.93,1.86s1.89-.82,1.93-1.86l.63-18.14h12.03v8.5h0v6.78h0v3.73c0,.55.45,1,1,1s1-.45,1-1v-3.06l7-2.96,7,2.96v3.06c0,.55.45,1,1,1s1-.45,1-1v-3.72h0v-6.78h0v-8.5h5.86l.63,18.14c.04,1.04.88,1.86,1.93,1.86s1.89-.82,1.93-1.86l.63-18.14h2.03c.55,0,1-.45,1-1v-2h1.01c.55,0,1-.45,1-1v-4c0-.55-.45-1-1-1Zm-17,16h-14v-1h14v1Zm-2.75,2l-4.25,1.8-4.25-1.8h8.5Zm-9.07-18h9.64c1.2,0,2.18.98,2.18,2.18v10.82h-14v-10.82c0-1.2.98-2.18,2.18-2.18Zm2.82-22v13H10v-13h24Zm-24,15h24v2H10v-2Zm10.82,4h2.36l.6,3h-3.56l.6-3Zm-13.82,5h20.02c0,.06-.02.12-.02.18v1.82H7v-2Zm5.41,23.04l-.55-16.04h1.11l-.55,16.04Zm-3.41-18.04v-1h18v1H9Zm20,15.76v-3.76l4.44,1.88-4.44,1.88Zm9.56-1.88l4.44-1.88v3.76l-4.44-1.88Zm14.85,4.16l-.55-16.04h1.11l-.55,16.04Zm3.58-18.04h-11.99v-1h11.99v1Zm2.01-3h-14v-1.82c0-.06-.02-.12-.02-.18h14.02v2Z" fill="#4c241d"/><path d="m51,1c0-.55-.45-1-1-1s-1,.45-1,1v17h-1c-.55,0-1,.45-1,1v1.64c-2.87,1.22-4.74,4.09-4.74,7.36,0,.55.45,1,1,1h13.38c.55,0,1-.45,1-1,0-3.21-1.83-6.05-4.63-7.31v-1.69c0-.55-.45-1-1-1h-1V1Zm.68,21.32c2.05.69,3.52,2.51,3.87,4.68h-11.21c.36-2.19,1.89-4.05,3.96-4.71.42-.13.7-.52.7-.95v-1.34h2v1.38c0,.43.27.81.68.95Z" fill="#4c241d"/></svg>
