<svg xmlns="http://www.w3.org/2000/svg" width="174" height="67"><defs><radialGradient id="bond-logo-b" cx="50.0235%" cy="50.0558%" r="53.7458%" fx="50.0235%" fy="50.0558%" gradientTransform="matrix(1 0 0 .873128 0 .0635)"><stop offset="0%" stop-color="#008BD0"/><stop offset="100%" stop-color="#004F87"/></radialGradient><radialGradient id="bond-logo-c" cx="51.4057%" cy="50.7525%" r="188.5108%" fx="51.4057%" fy="50.7525%" gradientTransform="matrix(.200669 0 0 1 .4109 0)"><stop offset="0%" stop-color="#FFCB25"/><stop offset="100%" stop-color="#B2770D"/></radialGradient><radialGradient id="bond-logo-d" cx="52.1113%" cy="50.0904%" r="188.9633%" fx="52.1113%" fy="50.0904%" gradientTransform="matrix(.267874 0 0 1 .3815 0)"><stop offset="0%" stop-color="#FFCB25"/><stop offset="100%" stop-color="#B2770D"/></radialGradient><radialGradient id="bond-logo-o" cx="50.1658%" cy="49.8408%" r="50.8028%" fx="50.1658%" fy="49.8408%" gradientTransform="matrix(.972603 0 0 1 .0137 0)"><stop offset="0%" stop-color="#FFF"/><stop offset="26.38%" stop-color="#E6E7E8"/><stop offset="53.99%" stop-color="#D4D8D3"/><stop offset="62.62%" stop-color="#CCD1CD"/><stop offset="75.91%" stop-color="#B7BCBB"/><stop offset="92.12%" stop-color="#949B9F"/><stop offset="100%" stop-color="#80888F"/></radialGradient><radialGradient id="bond-logo-p" cx="50.2589%" cy="49.8817%" r="50.8028%" fx="50.2589%" fy="49.8817%" gradientTransform="matrix(.972603 0 0 1 .0138 0)"><stop offset="0%" stop-color="#FFF"/><stop offset="26.38%" stop-color="#E6E7E8"/><stop offset="53.99%" stop-color="#D4D8D3"/><stop offset="62.62%" stop-color="#CCD1CD"/><stop offset="75.91%" stop-color="#B7BCBB"/><stop offset="92.12%" stop-color="#949B9F"/><stop offset="100%" stop-color="#80888F"/></radialGradient><radialGradient id="bond-logo-q" cx="49.7603%" cy="50.0653%" r="50.0972%" fx="49.7603%" fy="50.0653%" gradientTransform="matrix(.986301 0 0 1 .0068 0)"><stop offset="0%" stop-color="#FFF"/><stop offset="26.38%" stop-color="#E6E7E8"/><stop offset="53.99%" stop-color="#D4D8D3"/><stop offset="62.62%" stop-color="#CCD1CD"/><stop offset="75.91%" stop-color="#B7BCBB"/><stop offset="92.12%" stop-color="#949B9F"/><stop offset="100%" stop-color="#80888F"/></radialGradient><radialGradient id="bond-logo-r" cx="49.9822%" cy="49.9493%" r="50.8028%" fx="49.9822%" fy="49.9493%" gradientTransform="matrix(.972603 0 0 1 .0137 0)"><stop offset="0%" stop-color="#FFF"/><stop offset="26.38%" stop-color="#E6E7E8"/><stop offset="53.99%" stop-color="#D4D8D3"/><stop offset="62.62%" stop-color="#CCD1CD"/><stop offset="75.91%" stop-color="#B7BCBB"/><stop offset="92.12%" stop-color="#949B9F"/><stop offset="100%" stop-color="#80888F"/></radialGradient><radialGradient id="bond-logo-s" cx="50.1289%" cy="50.8667%" r="51.7222%" fx="50.1289%" fy="50.8667%" gradientTransform="matrix(.947368 0 0 1 .0264 0)"><stop offset="0%" stop-color="#FFF"/><stop offset="26.38%" stop-color="#E6E7E8"/><stop offset="53.99%" stop-color="#D4D8D3"/><stop offset="62.62%" stop-color="#CCD1CD"/><stop offset="75.91%" stop-color="#B7BCBB"/><stop offset="92.12%" stop-color="#949B9F"/><stop offset="100%" stop-color="#80888F"/></radialGradient><radialGradient id="bond-logo-u" cx="49.9334%" cy="49.7361%" r="70.6508%" fx="49.9334%" fy="49.7361%" gradientTransform="matrix(.577287 0 0 1 .211 0)"><stop offset="0%" stop-color="#008BD0"/><stop offset="100%" stop-color="#00427E"/></radialGradient><radialGradient id="bond-logo-v" cx="50.5304%" cy="51.5211%" r="109.4947%" fx="50.5304%" fy="51.5211%" gradientTransform="matrix(.339286 0 0 1 .3339 0)"><stop offset="0%" stop-color="#FFCB25"/><stop offset="100%" stop-color="#B2770D"/></radialGradient><radialGradient id="bond-logo-w" cx="49.8922%" cy="49.3816%" r="58.9658%" fx="49.8922%" fy="49.3816%" gradientTransform="matrix(.745098 0 0 1 .1272 0)"><stop offset="0%" stop-color="#FFCB25"/><stop offset="100%" stop-color="#B2770D"/></radialGradient><radialGradient id="bond-logo-x" cx="49.6918%" cy="50.3429%" r="70.9107%" fx="49.6918%" fy="50.3429%" gradientTransform="matrix(.571429 0 0 1 .213 0)"><stop offset="0%" stop-color="#FFCB25"/><stop offset="100%" stop-color="#B2770D"/></radialGradient><radialGradient id="bond-logo-y" cx="50.3821%" cy="50.6191%" r="69.3821%" fx="50.3821%" fy="50.6191%" gradientTransform="matrix(1 0 0 .595745 0 .2046)"><stop offset="0%" stop-color="#FFCB25"/><stop offset="100%" stop-color="#B2770D"/></radialGradient><radialGradient id="bond-logo-z" cx="49.9447%" cy="48.7818%" r="54.597%" fx="49.9447%" fy="48.7818%" gradientTransform="matrix(.868421 0 0 1 .0657 0)"><stop offset="0%" stop-color="#FFCB25"/><stop offset="100%" stop-color="#B2770D"/></radialGradient><radialGradient id="bond-logo-A" cx="51.5591%" cy="49.7102%" r="85.8727%" fx="51.5591%" fy="49.7102%" gradientTransform="matrix(1 0 0 .44898 0 .274)"><stop offset="0%" stop-color="#FFCB25"/><stop offset="100%" stop-color="#B2770D"/></radialGradient><radialGradient id="bond-logo-B" cx="49.3061%" cy="49.2667%" r="56.9545%" fx="49.3061%" fy="49.2667%" gradientTransform="matrix(1 0 0 .785714 0 .1056)"><stop offset="0%" stop-color="#FFCB25"/><stop offset="100%" stop-color="#B2770D"/></radialGradient><radialGradient id="bond-logo-C" cx="48.465%" cy="49.9122%" r="92.46%" fx="48.465%" fy="49.9122%" gradientTransform="matrix(1 0 0 .408163 0 .2954)"><stop offset="0%" stop-color="#FFCB25"/><stop offset="100%" stop-color="#B2770D"/></radialGradient><radialGradient id="bond-logo-D" cx="49.3768%" cy="51.5211%" r="109.4947%" fx="49.3768%" fy="51.5211%" gradientTransform="matrix(-.339286 0 0 -1 .6613 1.0304)"><stop offset="0%" stop-color="#FFCB25"/><stop offset="100%" stop-color="#B2770D"/></radialGradient><radialGradient id="bond-logo-E" cx="50.0039%" cy="49.3816%" r="58.9658%" fx="50.0039%" fy="49.3816%" gradientTransform="matrix(-.745098 0 0 -1 .8726 .9876)"><stop offset="0%" stop-color="#FFCB25"/><stop offset="100%" stop-color="#B2770D"/></radialGradient><radialGradient id="bond-logo-F" cx="50.2%" cy="50.3429%" r="70.9107%" fx="50.2%" fy="50.3429%" gradientTransform="matrix(-.571429 0 0 -1 .7889 1.0069)"><stop offset="0%" stop-color="#FFCB25"/><stop offset="100%" stop-color="#B2770D"/></radialGradient><radialGradient id="bond-logo-G" cx="49.4286%" cy="50.6191%" r="69.3821%" fx="49.4286%" fy="50.6191%" gradientTransform="matrix(-1 0 0 -.595745 .9886 .8078)"><stop offset="0%" stop-color="#FFCB25"/><stop offset="100%" stop-color="#B2770D"/></radialGradient><radialGradient id="bond-logo-H" cx="49.9158%" cy="48.7818%" r="54.597%" fx="49.9158%" fy="48.7818%" gradientTransform="matrix(-.868421 0 0 -1 .9326 .9756)"><stop offset="0%" stop-color="#FFCB25"/><stop offset="100%" stop-color="#B2770D"/></radialGradient><radialGradient id="bond-logo-I" cx="48.2%" cy="49.7102%" r="85.8727%" fx="48.2%" fy="49.7102%" gradientTransform="matrix(-1 0 0 -.44898 .964 .7203)"><stop offset="0%" stop-color="#FFCB25"/><stop offset="100%" stop-color="#B2770D"/></radialGradient><radialGradient id="bond-logo-J" cx="50.5333%" cy="49.2667%" r="56.9545%" fx="50.5333%" fy="49.2667%" gradientTransform="matrix(-1 0 0 -.785714 1.0107 .8798)"><stop offset="0%" stop-color="#FFCB25"/><stop offset="100%" stop-color="#B2770D"/></radialGradient><radialGradient id="bond-logo-K" cx="51.27%" cy="49.9122%" r="92.465%" fx="51.27%" fy="49.9122%" gradientTransform="matrix(-1 0 0 -.408163 1.0254 .7028)"><stop offset="0%" stop-color="#FFCB25"/><stop offset="100%" stop-color="#B2770D"/></radialGradient><linearGradient id="bond-logo-a" x1=".0015%" x2="100.0406%" y1="49.8644%" y2="49.8644%"><stop offset=".4762%" stop-color="#A0A4A2"/><stop offset="3.1313%" stop-color="#AAAEAB"/><stop offset="10.95%" stop-color="#C1C5C1"/><stop offset="18.27%" stop-color="#CFD3CE"/><stop offset="24.54%" stop-color="#D4D8D3"/><stop offset="74.23%" stop-color="#D4D8D3"/><stop offset="79.57%" stop-color="#D0D4CF"/><stop offset="85.36%" stop-color="#C3C7C5"/><stop offset="91.36%" stop-color="#ADB3B3"/><stop offset="97.47%" stop-color="#8F969B"/><stop offset="100%" stop-color="#80888F"/></linearGradient><linearGradient id="bond-logo-e" x1="-.1198%" x2="99.7504%" y1="47.675%" y2="47.675%"><stop offset=".4762%" stop-color="#00386E"/><stop offset="42.86%" stop-color="#00A0DE"/><stop offset="53.36%" stop-color="#009CDA"/><stop offset="63.51%" stop-color="#0091CF"/><stop offset="73.52%" stop-color="#007EBB"/><stop offset="83.44%" stop-color="#0064A0"/><stop offset="93.2%" stop-color="#00427D"/><stop offset="100%" stop-color="#002660"/></linearGradient><linearGradient id="bond-logo-f" x1="-.1198%" x2="99.7504%" y1="56.3625%" y2="56.3625%"><stop offset=".4762%" stop-color="#00386E"/><stop offset="42.86%" stop-color="#00A0DE"/><stop offset="53.36%" stop-color="#009CDA"/><stop offset="63.51%" stop-color="#0091CF"/><stop offset="73.52%" stop-color="#007EBB"/><stop offset="83.44%" stop-color="#0064A0"/><stop offset="93.2%" stop-color="#00427D"/><stop offset="100%" stop-color="#002660"/></linearGradient><linearGradient id="bond-logo-g" x1="-.1198%" x2="99.7504%" y1="52.5625%" y2="52.5625%"><stop offset=".4762%" stop-color="#00386E"/><stop offset="42.86%" stop-color="#00A0DE"/><stop offset="53.36%" stop-color="#009CDA"/><stop offset="63.51%" stop-color="#0091CF"/><stop offset="73.52%" stop-color="#007EBB"/><stop offset="83.44%" stop-color="#0064A0"/><stop offset="93.2%" stop-color="#00427D"/><stop offset="100%" stop-color="#002660"/></linearGradient><linearGradient id="bond-logo-h" x1="-.1198%" x2="99.7504%" y1="48.725%" y2="48.725%"><stop offset=".4762%" stop-color="#00386E"/><stop offset="42.86%" stop-color="#00A0DE"/><stop offset="53.36%" stop-color="#009CDA"/><stop offset="63.51%" stop-color="#0091CF"/><stop offset="73.52%" stop-color="#007EBB"/><stop offset="83.44%" stop-color="#0064A0"/><stop offset="93.2%" stop-color="#00427D"/><stop offset="100%" stop-color="#002660"/></linearGradient><linearGradient id="bond-logo-i" x1="-.1198%" x2="99.7504%" y1="57.4125%" y2="57.4125%"><stop offset=".4762%" stop-color="#00386E"/><stop offset="42.86%" stop-color="#00A0DE"/><stop offset="53.36%" stop-color="#009CDA"/><stop offset="63.51%" stop-color="#0091CF"/><stop offset="73.52%" stop-color="#007EBB"/><stop offset="83.44%" stop-color="#0064A0"/><stop offset="93.2%" stop-color="#00427D"/><stop offset="100%" stop-color="#002660"/></linearGradient><linearGradient id="bond-logo-j" x1="-.386%" x2="100.805%" y1="52.86%" y2="52.86%"><stop offset=".4762%" stop-color="#00386E"/><stop offset="42.86%" stop-color="#00A0DE"/><stop offset="53.36%" stop-color="#009CDA"/><stop offset="63.51%" stop-color="#0091CF"/><stop offset="73.52%" stop-color="#007EBB"/><stop offset="83.44%" stop-color="#0064A0"/><stop offset="93.2%" stop-color="#00427D"/><stop offset="100%" stop-color="#002660"/></linearGradient><linearGradient id="bond-logo-k" x1="-1.4712%" x2="101.6296%" y1="49.81%" y2="49.81%"><stop offset=".4762%" stop-color="#00386E"/><stop offset="42.86%" stop-color="#00A0DE"/><stop offset="53.36%" stop-color="#009CDA"/><stop offset="63.51%" stop-color="#0091CF"/><stop offset="73.52%" stop-color="#007EBB"/><stop offset="83.44%" stop-color="#0064A0"/><stop offset="93.2%" stop-color="#00427D"/><stop offset="100%" stop-color="#002660"/></linearGradient><linearGradient id="bond-logo-l" x1="-3.1828%" x2="103.0675%" y1="46.77%" y2="46.77%"><stop offset=".4762%" stop-color="#00386E"/><stop offset="42.86%" stop-color="#00A0DE"/><stop offset="53.36%" stop-color="#009CDA"/><stop offset="63.51%" stop-color="#0091CF"/><stop offset="73.52%" stop-color="#007EBB"/><stop offset="83.44%" stop-color="#0064A0"/><stop offset="93.2%" stop-color="#00427D"/><stop offset="100%" stop-color="#002660"/></linearGradient><linearGradient id="bond-logo-m" x1="-5.0311%" x2="105.2003%" y1="43.73%" y2="43.73%"><stop offset=".4762%" stop-color="#00386E"/><stop offset="42.86%" stop-color="#00A0DE"/><stop offset="53.36%" stop-color="#009CDA"/><stop offset="63.51%" stop-color="#0091CF"/><stop offset="73.52%" stop-color="#007EBB"/><stop offset="83.44%" stop-color="#0064A0"/><stop offset="93.2%" stop-color="#00427D"/><stop offset="100%" stop-color="#002660"/></linearGradient><linearGradient id="bond-logo-n" x1="-7.7145%" x2="108.1942%" y1="50.68%" y2="50.68%"><stop offset=".4762%" stop-color="#00386E"/><stop offset="42.86%" stop-color="#00A0DE"/><stop offset="53.36%" stop-color="#009CDA"/><stop offset="63.51%" stop-color="#0091CF"/><stop offset="73.52%" stop-color="#007EBB"/><stop offset="83.44%" stop-color="#0064A0"/><stop offset="93.2%" stop-color="#00427D"/><stop offset="100%" stop-color="#002660"/></linearGradient><linearGradient id="bond-logo-t" x1="11.393%" x2="89.9763%" y1="51.8357%" y2="51.8357%"><stop offset="0%" stop-color="#80888F"/><stop offset="6.91%" stop-color="#8F969B"/><stop offset="20.07%" stop-color="#B5BABA"/><stop offset="29.45%" stop-color="#D4D8D3"/><stop offset="69.33%" stop-color="#D4D8D3"/><stop offset="75.43%" stop-color="#BDC2C0"/><stop offset="85.71%" stop-color="#9CA2A5"/><stop offset="94.27%" stop-color="#878F95"/><stop offset="100%" stop-color="#80888F"/></linearGradient><linearGradient id="bond-logo-L" x1="-.7274%" x2="99.1708%" y1="49.7328%" y2="49.7328%"><stop offset=".4762%" stop-color="#A0A4A2"/><stop offset="5.7041%" stop-color="#B9BDBA"/><stop offset="11.08%" stop-color="#CDD1CC"/><stop offset="14.76%" stop-color="#D4D8D3"/><stop offset="51.53%" stop-color="#F1F1F2"/><stop offset="87.12%" stop-color="#D4D8D3"/><stop offset="89.65%" stop-color="#CACFCB"/><stop offset="93.9%" stop-color="#B0B6B6"/><stop offset="99.33%" stop-color="#868D94"/><stop offset="100%" stop-color="#80888F"/></linearGradient></defs><g fill="none" fill-rule="evenodd"><path fill="#003663" fill-rule="nonzero" d="M48.7 34.8v-6.2l1.8-.1c2.2-.1 4.6.9 4.6 3.4 0 2.4-2.1 3.4-4.2 3.1l-2.2-.2Zm-2.6-1.6c0 1.2.1 3-1.1 3.5v.1h4.1c1.9 0 3.9.1 5.7-.8 1.7-.8 3-2.5 3-4.4 0-2.5-1.8-4-4.1-4.5 1.4-.6 2.5-1.6 2.5-3.3 0-2.2-1.9-3.7-5.3-3.7h-6v.1c1.3.5 1.1 2.3 1.1 3.5v9.5h.1Zm2.6-6.3V22l1.7-.2c1.5-.2 3.1.8 3.1 2.5 0 2.1-2.3 2.6-4 2.6h-.8ZM68 21.6c4 0 6.3 3.5 6.3 7.2s-2.4 6.5-6.3 6.5c-4 0-6.5-3.6-6.5-7.1.1-3.8 2.6-6.6 6.5-6.6Zm.2-1.8c-5.3-.1-9.4 3.9-9.4 8.7 0 5.2 4.2 8.7 9.2 8.7 5 0 9.3-3.7 9.3-8.9-.1-4.5-3.8-8.6-9.1-8.5ZM80.8 33.5c0 1.4 0 2.4 1.3 3.2v.1h-4.5v-.1c1.3-.8 1.3-1.8 1.3-3.2v-10c0-1.4 0-2.4-1.3-3.2v-.1h3.7c.1.3.2.4.4.6l.4.5L91.3 33v-9.6c0-1.4 0-2.4-1.3-3.2v-.1h4.4v.1c-1.3.8-1.3 1.8-1.3 3.2v14.1c-1.8-.6-2.6-1.4-3.7-2.9l-8.6-11v9.9ZM99.1 22.3c.8-.2 1.5-.3 2.3-.3 4.2 0 6.7 2.2 6.7 6.6 0 4.4-3.3 6.3-7.1 6.3-.6 0-1.2 0-1.8-.2V22.3h-.1Zm-2.6 10.9c0 1.5.2 2.7-1.1 3.6v.1h6c5.6 0 9.4-3.5 9.4-8.4 0-5-3.6-8.1-9.3-8.1h-6.2v.1c1.3.4 1.1 2.2 1.1 3.4v9.3h.1ZM56.9 55c-1.1 1.5-3.2 2.1-5 2.1-1.7 0-3.4-.5-4.6-1.7-1.3-1.5-1.3-3.2-1.3-5v-6.7c0-1.1.2-3-1.1-3.5v-.1h4.8v.1c-1.3.5-1.1 2.3-1.1 3.5v6.7c0 3.4 1.4 4.9 4 4.9 1.4 0 2.9-.6 3.7-1.8.6-.8.5-1.4.5-2.3v-7.6c0-1.1.2-3-1.1-3.5V40h4.8v.1c-1.3.5-1.1 2.3-1.1 3.5v9.5c0 1.1-.2 3 1.1 3.5v.1h-3.7V55h.1ZM64.6 53.4c0 1.4 0 2.4 1.3 3.2v.1h-4.5v-.1c1.3-.8 1.3-1.8 1.3-3.2V43.3c0-1.4 0-2.4-1.3-3.2V40h3.7c.1.3.2.4.4.6l.4.5L75 52.9v-9.6c0-1.4 0-2.4-1.3-3.2V40h4.4v.1c-1.3.8-1.3 1.8-1.3 3.2v14.1c-1.8-.6-2.6-1.4-3.7-2.9l-8.6-11v9.9h.1ZM80.2 43.6c0-1.2.2-3-1.1-3.5V40h4.8v.1c-1.3.5-1.1 2.3-1.1 3.5v9.5c0 1.1-.2 3 1.1 3.5v.1h-4.8v-.1c1.3-.5 1.1-2.3 1.1-3.5v-9.5ZM96.5 44.6c.7-1.8 1.5-3.9 0-4.5V40h3.7l-6.7 17.3c-1.8-1.2-2.4-1.4-3.1-3.4l-3.8-10.3c-.5-1.3-.9-2.7-2-3.6v-.1h3.7v.3c0 .6.5 1.8.7 2.3l4 11 3.5-8.9ZM104.7 54.5l3.2.3c1.7.2 3.4-.4 4.7-1.5h.1l-1.1 3.3H101v-.1c1.3-.5 1.1-2.3 1.1-3.5v-9.5c0-1.2.1-3-1.1-3.5v-.1h8c.4 0 .9.1 1.2-.1h.1v2.9h-.1c-.8-.9-1.8-1-3-1-.9 0-1.8 0-2.6.2v4.7h3c.4 0 .8 0 1.1-.2h.1v2.7h-.1c-.4-.7-1.5-.7-2.2-.7h-1.9v6.1h.1ZM119 40c3.4 0 5.2 1.8 5.2 4.1 0 2.2-1.9 4-4 4.4l3.6 4.6c1.1 1.3 2.6 2.6 4.1 3.5h-2.3c-1.3 0-2.2-.3-2.9-1.3l-3.1-3.8-2.3-3.6c2-.3 4.4-1.2 4.4-3.6 0-1.8-1.6-2.9-3.3-2.8-.6 0-1.1.1-1.7.2V53c0 1.2-.2 3 1.1 3.5v.1H113v-.1c1.3-.5 1.1-2.3 1.1-3.5v-9.5c0-1.2.2-3-1.1-3.5v-.1l6 .1ZM137.9 43.1c-1-1-2.5-1.6-3.9-1.6s-3.2.6-3.2 2.3c0 3.4 8.6 3.4 8.6 8 0 2.7-2.8 5.2-6.7 5.2-1.5 0-3.1-.2-4.5-.8l-.7-3.2c1.5 1.3 3.5 2.1 5.5 2.1 1.4 0 3.6-.9 3.6-2.6 0-3.9-8.6-3.2-8.6-8.5 0-3.2 3.2-4.4 6.3-4.4 1.3 0 2.5.2 3.7.6v2.9h-.1ZM141 43.6c0-1.2.2-3-1.1-3.5V40h4.8v.1c-1.3.5-1.1 2.3-1.1 3.5v9.5c0 1.1-.2 3 1.1 3.5v.1h-4.8v-.1c1.3-.5 1.1-2.3 1.1-3.5v-9.5Z"/><path fill="#003663" fill-rule="nonzero" d="M152.4 53.4c0 1.4 0 2.4 1.3 3.2v.1h-5v-.1c1.3-.5 1.1-2.3 1.1-3.5V41.9h-2.2c-1.1 0-2.2.3-3 1h-.1l.9-3h.1c.3.1.6.1 1 .2h10c.4 0 .8 0 1.2-.2h.1l-.8 3h-.1c-.3-.9-1.3-1-2.2-1h-2.3v11.5ZM167.5 53.4c0 1.5 0 2.3 1.3 3.2v.1h-4.9v-.1c1.2-.6 1.1-2.3 1.1-3.5v-3.7l-4.2-6.7c-.7-1.1-1.2-1.9-2.4-2.6h2.3c.8 0 1.6.2 1.9.7l4 6.6 3.1-4.7c.4-.6 1-1.8-.4-2.5v-.1h4.4l-6.2 9.3v4Z"/><path fill="url(#bond-logo-a)" fill-rule="nonzero" stroke="#2E2E2E" stroke-width=".1249" d="M40.1 30.6V20.3H30v-1.1h8.2l-4.5-3.5 2.5-3.9-4.7-1.1.7-4.9-4.6.8-1-4.6-4.1 2.5L19.8.6l-2.7 3.9L13 2l-1 4.6-4.4-.9.7 4.9-4.7 1.1 2.5 3.9-4.5 3.5h8.2v1.1H0v10.3c0 .3-.4 23 19.6 35.5l.4.3.4-.3c20.2-12.5 19.7-35.2 19.7-35.4Z" transform="translate(1)"/><path fill="url(#bond-logo-b)" fill-rule="nonzero" d="M39.3 30.6v-9.5H.8v9.5S.1 52.9 20 65.2c19.9-12.3 19.3-34.6 19.3-34.6Z" transform="translate(1)"/><path fill="url(#bond-logo-c)" fill-rule="nonzero" stroke="#E6E7E8" stroke-width=".04" d="M29.9 48.6c-1.9-1-3.3-1.6-5.9 0-2.6 1.6-4.2 2.1-6.6.6-2.4-1.5-3.9-1.6-3.9-1.6-1.5 0-2.1.5-4.5 1.8-1.7.9-2.6.8-3 .7.5 1 1.1 1.9 1.7 2.9.9-.2 1.7-.6 2.5-1 1-.5 2.7-2.1 6.3-.1 3.6 2 4.3 1.7 7.4-.1 3.1-1.7 4.4-.9 6.7.2.9.5 1.5.7 2.1.7.6-.9 1.1-1.8 1.6-2.7-1.9.1-2.9-.6-4.4-1.4Z" transform="translate(1)"/><path fill="url(#bond-logo-d)" fill-rule="nonzero" stroke="#E6E7E8" stroke-width=".04" d="M29.8 55.2c-1.9-1-3.3-1.6-5.9 0-2.6 1.6-4.2 2.1-6.6.6-2.4-1.5-3.9-1.6-3.9-1.6-1.4 0-2 .4-3.9 1.5.6.7 1.2 1.5 1.8 2.2 1.1-.5 2.6-.7 5 .6 3.6 2 4.3 1.7 7.4-.1 2.3-1.3 3.6-1.2 5.1-.6.7-.7 1.3-1.5 1.9-2.3-.3 0-.6-.2-.9-.3Z" transform="translate(1)"/><path fill="url(#bond-logo-e)" fill-rule="nonzero" d="M1 22.8h38.3v1H1z" transform="translate(1)"/><path fill="url(#bond-logo-f)" fill-rule="nonzero" d="M1 25.2h38.3v1H1z" transform="translate(1)"/><path fill="url(#bond-logo-g)" fill-rule="nonzero" d="M1 27.7h38.3v1H1z" transform="translate(1)"/><path fill="url(#bond-logo-h)" fill-rule="nonzero" d="M1 30.2h38.3v1H1z" transform="translate(1)"/><path fill="url(#bond-logo-i)" fill-rule="nonzero" d="M1 32.6h38.3v1H1z" transform="translate(1)"/><path fill="url(#bond-logo-j)" fill-rule="nonzero" d="M1.1 35.1c0 .3.1.5.1.8h37.6c0-.3.1-.6.1-.8H1.1Z" transform="translate(1)"/><path fill="url(#bond-logo-k)" fill-rule="nonzero" d="M1.7 38.4h36.7c.1-.3.1-.6.2-.8H1.5c.1.3.1.5.2.8Z" transform="translate(1)"/><path fill="url(#bond-logo-l)" fill-rule="nonzero" d="M2.3 40.9h35.6c.1-.3.1-.6.2-.8h-36c0 .2.1.5.2.8Z" transform="translate(1)"/><path fill="url(#bond-logo-m)" fill-rule="nonzero" d="M3 43.4h34.1c.1-.3.2-.6.3-.8H2.7c.1.2.2.5.3.8Z" transform="translate(1)"/><path fill="url(#bond-logo-n)" fill-rule="nonzero" d="M3.9 45.8h32.3c.1-.3.2-.6.3-.8h-33c.2.3.3.5.4.8Z" transform="translate(1)"/><path stroke="#E0E0E0" stroke-width=".1249" d="M40.3 30.6v-9.5H1.8v9.5S1.1 52.9 21 65.2c19.9-12.3 19.3-34.6 19.3-34.6Z"/><g fill-rule="nonzero" stroke="#E6E7E8"><path fill="url(#bond-logo-o)" stroke-width=".1249" d="m15 5.8 1.6 1.3V5l2-.4L17 3.3l.9-1.9-2 .4L15 0l-.9 1.8-2.1-.4.9 1.9-1.6 1.3 2 .4v2.1z" transform="translate(6 23)"/><path fill="url(#bond-logo-p)" stroke-width=".1249" d="M4.4 13.2 6 14.5v-2.1l2-.4-1.6-1.3.9-1.9-2 .5-.9-1.9-.9 1.9-2.1-.5.9 1.9L.7 12l2 .4v2.1z" transform="translate(6 23)"/><path fill="url(#bond-logo-q)" stroke-width=".1249" d="m15.1 23.3 1.7 1.3v-2.1l2-.5-1.6-1.3.9-1.8-2.1.4-.9-1.9-.9 1.9-2-.4.9 1.8-1.6 1.3 2 .5v2.1z" transform="translate(6 23)"/><path fill="url(#bond-logo-r)" stroke-width=".1249" d="m25.7 10.6 1.7 1.3V9.8l2-.4-1.6-1.3.9-1.9-2 .5-1-1.9-.9 1.9-2-.5.9 1.9-1.6 1.3 2 .4v2.1z" transform="translate(6 23)"/><path fill="url(#bond-logo-s)" stroke-width=".0999" d="m20.5 16.2-1.2.8.4-1.3-1.1-.9H20l.5-1.4.5 1.4h1.4l-1.1.9.4 1.3z" transform="translate(6 23)"/></g><path fill="url(#bond-logo-t)" fill-rule="nonzero" d="M10.6 18.9h18.6v1.4H10.6z" transform="translate(1)"/><path fill="url(#bond-logo-u)" fill-rule="nonzero" stroke="#FFFCE0" stroke-width=".1249" d="M10.7 20.2v-1.9H4.1l3.2-2.5L5 12.3l4.3-1-.7-4.5 4.2.8.9-4.3 3.8 2.3L19.9 2l2.5 3.6 3.8-2.3.9 4.3 4.2-.8-.7 4.5 4.3 1-2.3 3.6 3.2 2.5h-6.6v1.9l-7.4-1s-.6 1-1.8 1c-1.2 0-1.8-1-1.8-1l-7.5.9Z" transform="translate(1)"/><path fill="url(#bond-logo-v)" fill-rule="nonzero" stroke="#FFFCE0" stroke-width=".075" d="M10.7 18v-1.2l-3.1-.7L5.1 18z" transform="translate(1)"/><path fill="url(#bond-logo-w)" fill-rule="nonzero" stroke="#FFFCE0" stroke-width=".075" d="m5.6 12.7 5.1 2.1v1.7l-3.1-.7z" transform="translate(1)"/><path fill="url(#bond-logo-x)" fill-rule="nonzero" stroke="#FFFCE0" stroke-width=".075" d="m5.8 12.4 3.6-.8 1.3 1v1.8z" transform="translate(1)"/><path fill="url(#bond-logo-y)" fill-rule="nonzero" stroke="#FFFCE0" stroke-width=".075" d="m9 7.4.7 4 1 .7v-1.3l1.1-.2z" transform="translate(1)"/><path fill="url(#bond-logo-z)" fill-rule="nonzero" stroke="#FFFCE0" stroke-width=".075" d="m9.3 7.3 2.9 3.3.9-.2V8.7l-.3-.8z" transform="translate(1)"/><path fill="url(#bond-logo-A)" fill-rule="nonzero" stroke="#FFFCE0" stroke-width=".075" d="m13.9 4.3-.8 3.5.3.5 1.9.9V7.7z" transform="translate(1)"/><path fill="url(#bond-logo-B)" fill-rule="nonzero" stroke="#FFFCE0" stroke-width=".075" d="m14.2 4.2 1.5 3.2 1.8 1V6.1z" transform="translate(1)"/><path fill="url(#bond-logo-C)" fill-rule="nonzero" stroke="#FFFCE0" stroke-width=".075" d="M19.8 3v4.9l-2-1.3v-.8z" transform="translate(1)"/><path fill="url(#bond-logo-D)" fill-rule="nonzero" stroke="#FFFCE0" stroke-width=".075" d="M29.2 18v-1.2l3.1-.7 2.5 1.9z" transform="translate(1)"/><path fill="url(#bond-logo-E)" fill-rule="nonzero" stroke="#FFFCE0" stroke-width=".075" d="m34.3 12.7-5.1 2.1v1.7l3-.7z" transform="translate(1)"/><path fill="url(#bond-logo-F)" fill-rule="nonzero" stroke="#FFFCE0" stroke-width=".075" d="m34.1 12.4-3.6-.8-1.3 1v1.8z" transform="translate(1)"/><path fill="url(#bond-logo-G)" fill-rule="nonzero" stroke="#FFFCE0" stroke-width=".075" d="m30.9 7.4-.7 4-1 .7v-1.3l-1.1-.2z" transform="translate(1)"/><path fill="url(#bond-logo-H)" fill-rule="nonzero" stroke="#FFFCE0" stroke-width=".075" d="m30.6 7.3-3 3.3-.8-.2V8.7l.3-.8z" transform="translate(1)"/><path fill="url(#bond-logo-I)" fill-rule="nonzero" stroke="#FFFCE0" stroke-width=".075" d="m26 4.3.8 3.5-.3.5-1.9.9V7.7z" transform="translate(1)"/><path fill="url(#bond-logo-J)" fill-rule="nonzero" stroke="#FFFCE0" stroke-width=".075" d="m25.7 4.2-1.5 3.2-1.8 1V6.1z" transform="translate(1)"/><path fill="url(#bond-logo-K)" fill-rule="nonzero" stroke="#FFFCE0" stroke-width=".075" d="M20.1 3v4.9l2-1.3v-.8z" transform="translate(1)"/><path fill="url(#bond-logo-L)" fill-rule="nonzero" stroke="#2E2E2E" stroke-width=".0999" d="M26.6 11.5v5.7s-1.5-1-5.3.8c0-.1-.1-.2-.1-.3 2.6-1.8 5-1.2 5-1.2V8.9c-1.3.3-1.7 1-1.7 1v5.9c-1.6.2-2.8 1.2-3.4 1.7-.1-.1-.2-.2-.3-.4 1-1.3 3.2-1.9 3.2-1.9V8c-1.3.3-1.7 1-1.7 1v5.8c-1 .8-1.4 1.7-1.6 2.3-.1-.1-.3-.2-.4-.2.3-1.2 1.7-2.3 1.7-2.3V7.3c-1.3.3-1.7 1-1.7 1v8.5h-.6V8.4s-.4-.7-1.7-1v7.2s1.4 1.1 1.7 2.3c-.2 0-.3.1-.4.2-.2-.5-.7-1.5-1.6-2.3V9.1s-.4-.7-1.7-1v7.4s2.2.6 3.2 1.9c-.1.1-.2.2-.3.4-.5-.5-1.8-1.6-3.4-1.7V9.9s-.4-.7-1.7-1v7.7s2.5-.6 5 1.2c0 .1-.1.2-.1.3-3.8-1.8-5.3-.8-5.3-.8v-5.7c-.7-.1-1.7.2-1.7.2v7.4c3.1-1.4 6-1.1 7-.9v.1c0 .8.6 1.4 1.4 1.4.8 0 1.4-.6 1.4-1.4v-.1c1-.2 3.9-.5 7 .9v-7.4c-.1-.1-1.2-.4-1.9-.3Z" transform="translate(1)"/></g></svg>
