<?xml version="1.0" encoding="utf-8"?>
<!-- Generator: Adobe Illustrator 19.2.1, SVG Export Plug-In . SVG Version: 6.00 Build 0)  -->
<svg version="1.1" id="layer" xmlns="http://www.w3.org/2000/svg" xmlns:xlink="http://www.w3.org/1999/xlink" x="0px" y="0px"
	 viewBox="0 0 652 652" style="enable-background:new 0 0 652 652;" xml:space="preserve">
<style type="text/css">
	.st0{fill:#1B3051;}
	.st1{fill:#27DFE9;}
</style>
<path class="st0" d="M295.1,317.3c12.5-5.1,20.8-17.3,20.8-30.8c0.4-10.3-4.3-20.2-12.5-26.5c-10.3-7.3-22.8-10.8-35.4-10h-49.6V392
	h57.3c15.7,1.1,30.9-5.7,40.5-18.2c4.4-6.5,6.7-14.2,6.6-22.1c0.2-8.1-2.6-16-7.9-22.1C309.7,323.7,302.8,319.3,295.1,317.3z
	 M247.2,331.8h25.7c13.7,0,20.5,5.7,20.5,17.4s-6.6,17.4-20.5,17.4h-25.7L247.2,331.8z M283.8,302.4c-4.5,3.4-10.2,5-15.8,4.3h-20.8
	v-31.6H268c5.6-0.7,11.2,0.8,15.8,4.1c2.9,3.1,4.3,7.3,4.1,11.5C288.2,295.1,286.7,299.3,283.8,302.4z M463.5,249.9h-9.2l-36.8,83.8
	l-36.2-83.8h-9.6L334,391.6h28.3l20.5-73.9l31.6,68.3h6.4l31.6-68.3l20,74.4h28.3L463.5,249.9z M614.4,356.4L614.4,356.4
	c-9.3,6.5-20.3,10.1-31.6,10.3c-12.5,0.6-24.6-4-33.6-12.7c-8.5-8.9-13.1-20.7-12.8-33c-0.5-12.1,3.9-23.9,12.2-32.8
	c8.9-8.7,21.1-13.3,33.6-12.7c11.3,0.1,22.3,3.6,31.6,10l0,0l6.4-24.6l0,0c-5.6-3.6-11.7-6.4-18-8.4c-7-1.8-14.1-2.6-21.3-2.5
	c-12.8-0.1-25.5,3-36.8,9c-10.7,6-19.6,14.8-25.7,25.4c-6.5,11.1-9.9,23.8-9.8,36.6c-0.1,9.7,1.8,19.4,5.5,28.3
	c3.5,8.5,8.7,16.2,15.2,22.6c14,13,32.5,20.3,51.6,20.1c7.2,0.2,14.4-0.7,21.3-2.4c6.6-1.8,12.8-4.5,18.7-7.9l0,0l-6.6-25.1
	L614.4,356.4z"/>
<polygon class="st1" points="21,250 162.9,250 162.9,391.9 "/>
<polygon class="st0" points="162.9,391.9 21,391.9 21,250 "/>
</svg>
